#usda 1.0
(
    defaultPrim = "World"
    startTimeCode = 0
    endTimeCode = 320
    timeCodesPerSecond = 24
    metersPerUnit = 0.01
    upAxis = "Y"
)

def Xform "World"
{
    def Scope "Plaques"
    {
        def Scope "DeadNeuronPlaques"
        {
            def Xform "Plaque_01" (
                instanceable = true
                prepend apiSchemas = ["MaterialBindingAPI"]
                prepend references = @../assets/plaques.usdc@</root>
            )
            {
                rel material:binding = </World/Materials/Plaque> (bindMaterialAs = "strongerThanDescendants")
                double3 xformOp:translate = (-28, -8, 5)
                double3 xformOp:translate.timeSamples = {
                    0: (-28.1153, -7.9201, 5.0695),
                    16: (-27.9465, -7.8562, 4.9504),
                    32: (-27.8245, -7.8532, 4.8638),
                    48: (-27.8557, -7.9125, 4.8665),
                    64: (-28.0129, -8.0089, 4.9567),
                    80: (-28.1589, -8.1015, 5.0753),
                    96: (-28.1661, -8.1511, 5.1445),
                    112: (-28.0283, -8.1366, 5.119),
                    128: (-27.8658, -8.0641, 5.0155),
                    144: (-27.8205, -7.9645, 4.9018),
                    160: (-27.9319, -7.8799, 4.8525),
                    176: (-28.1028, -7.8463, 4.8999),
                    192: (-28.1839, -7.8778, 5.0129),
                    208: (-28.1044, -7.9612, 5.1175),
                    224: (-27.9337, -8.061, 5.145),
                    240: (-27.8209, -8.135, 5.0775),
                    256: (-27.8645, -8.1517, 4.9592),
                    272: (-28.0264, -8.1041, 4.8676),
                    288: (-28.1653, -8.0123, 4.8628),
                    304: (-28.1598, -7.9153, 4.948),
                    320: (-28.0148, -7.8543, 5.0672),
                }
                float3 xformOp:rotateXYZ = (-90, 47, 29)
                float3 xformOp:scale = (0.42, 0.42, 0.42)
                uniform token[] xformOpOrder = ["xformOp:translate", "xformOp:rotateXYZ", "xformOp:scale"]
            }
            def Xform "Plaque_02" (
                instanceable = true
                prepend apiSchemas = ["MaterialBindingAPI"]
                prepend references = @../assets/plaques.usdc@</root>
            )
            {
                rel material:binding = </World/Materials/Plaque> (bindMaterialAs = "strongerThanDescendants")
                double3 xformOp:translate = (-23, 8, -7)
                double3 xformOp:translate.timeSamples = {
                    0: (-23.0343, 8.1797, -7.0907),
                    16: (-23.1207, 8.1402, -7.1682),
                    32: (-23.0758, 7.9985, -7.1326),
                    48: (-22.9483, 7.8578, -7.0079),
                    64: (-22.8771, 7.8209, -6.8778),
                    80: (-22.9397, 7.9147, -6.8299),
                    96: (-23.0679, 8.0706, -6.8964),
                    112: (-23.1222, 8.1751, -7.0325),
                    128: (-23.0435, 8.1518, -7.1468),
                    144: (-22.9174, 8.0178, -7.1624),
                    160: (-22.8812, 7.8708, -7.0688),
                    176: (-22.9743, 7.8181, -6.929),
                    192: (-23.0953, 7.8981, -6.8369),
                    208: (-23.1126, 8.0524, -6.8545),
                    224: (-23.0073, 8.1686, -6.9699),
                    240: (-22.894, 8.1617, -7.1055),
                    256: (-22.8961, 8.0369, -7.1702),
                    272: (-23.0113, 7.8852, -7.1205),
                    288: (-23.1141, 7.8172, -6.9897),
                    304: (-23.0928, 7.8826, -6.8659),
                    320: (-22.9704, 8.0336, -6.8322),
                }
                float3 xformOp:rotateXYZ = (-90, 94, 58)
                float3 xformOp:scale = (0.3, 0.3, 0.3)
                uniform token[] xformOpOrder = ["xformOp:translate", "xformOp:rotateXYZ", "xformOp:scale"]
            }
            def Xform "Plaque_03" (
                instanceable = true
                prepend apiSchemas = ["MaterialBindingAPI"]
                prepend references = @../assets/plaques.usdc@</root>
            )
            {
                rel material:binding = </World/Materials/Plaque> (bindMaterialAs = "strongerThanDescendants")
                double3 xformOp:translate = (-14, -12, -5)
                double3 xformOp:translate.timeSamples = {
                    0: (-14.0534, -11.8708, -4.8896),
                    16: (-13.9048, -11.9678, -4.8013),
                    32: (-13.809, -12.0849, -4.9392),
                    48: (-13.8188, -12.149, -5.1463),
                    64: (-13.9289, -12.1202, -5.1869),
                    80: (-14.0784, -12.0164, -5.0147),
                    96: (-14.1845, -11.9024, -4.8258),
                    112: (-14.1885, -11.8493, -4.8352),
                    128: (-14.0881, -11.8902, -5.0322),
                    144: (-13.9391, -11.9996, -5.1925),
                    160: (-13.8237, -12.1093, -5.1337),
                    176: (-13.8059, -12.1508, -4.9227),
                    192: (-13.8955, -12.0982, -4.7997),
                    208: (-14.043, -11.9844, -4.9047),
                    224: (-14.1666, -11.8803, -5.1182),
                    240: (-14.1981, -11.8509, -5.1972),
                    256: (-14.1199, -11.9145, -5.0516),
                    272: (-13.9754, -12.0314, -4.8473),
                    288: (-13.8445, -12.1288, -4.8168),
                    304: (-13.7996, -12.1458, -4.9948),
                    320: (-13.8657, -12.0719, -5.1787),
                }
                float3 xformOp:rotateXYZ = (-90, 141, 87)
                float3 xformOp:scale = (0.36, 0.36, 0.36)
                uniform token[] xformOpOrder = ["xformOp:translate", "xformOp:rotateXYZ", "xformOp:scale"]
            }
            def Xform "Plaque_04" (
                instanceable = true
                prepend apiSchemas = ["MaterialBindingAPI"]
                prepend references = @../assets/plaques.usdc@</root>
            )
            {
                rel material:binding = </World/Materials/Plaque> (bindMaterialAs = "strongerThanDescendants")
                double3 xformOp:translate = (-8, 4, 7)
                double3 xformOp:translate.timeSamples = {
                    0: (-8.0218, 4.1916, 6.9421),
                    16: (-7.9314, 4.0271, 6.8304),
                    32: (-7.8756, 3.851, 6.8461),
                    48: (-7.8826, 3.7385, 6.9773),
                    64: (-7.9488, 3.7376, 7.1256),
                    80: (-8.0409, 3.8487, 7.1795),
                    96: (-8.1123, 4.0243, 7.0987),
                    112: (-8.127, 4.1895, 6.9437),
                    128: (-8.0777, 4.2739, 6.831),
                    144: (-7.9891, 4.2414, 6.8452),
                    160: (-7.9061, 4.1059, 6.9756),
                    176: (-7.8704, 3.9252, 7.1243),
                    192: (-7.9001, 3.7764, 7.1797),
                    208: (-7.9803, 3.723, 7.1002),
                    224: (-8.0704, 3.7878, 6.9454),
                    240: (-8.1249, 3.9431, 6.8316),
                    256: (-8.1165, 4.1227, 6.8443),
                    272: (-8.0492, 4.2499, 6.9739),
                    288: (-7.9571, 4.2705, 7.123),
                    304: (-7.8867, 4.1757, 7.1798),
                    320: (-7.8734, 4.0059, 7.1016),
                }
                float3 xformOp:rotateXYZ = (-90, 188, 116)
                float3 xformOp:scale = (0.28, 0.28, 0.28)
                uniform token[] xformOpOrder = ["xformOp:translate", "xformOp:rotateXYZ", "xformOp:scale"]
            }
            def Xform "Plaque_05" (
                instanceable = true
                prepend apiSchemas = ["MaterialBindingAPI"]
                prepend references = @../assets/plaques.usdc@</root>
            )
            {
                rel material:binding = </World/Materials/Plaque> (bindMaterialAs = "strongerThanDescendants")
                double3 xformOp:translate = (-20, 14, 4)
                double3 xformOp:translate.timeSamples = {
                    0: (-19.799, 14.2354, 4.0991),
                    16: (-19.8406, 14.1469, 4.204),
                    32: (-19.9804, 13.9944, 4.0431),
                    48: (-20.1323, 13.8443, 3.826),
                    64: (-20.2026, 13.7621, 3.8357),
                    80: (-20.1482, 13.7838, 4.0595),
                    96: (-20.0024, 13.8998, 4.2058),
                    112: (-19.8552, 14.0596, 4.0839),
                    128: (-19.7972, 14.1933, 3.8527),
                    144: (-19.8641, 14.2427, 3.8134),
                    160: (-20.0148, 14.1862, 4.0173),
                    176: (-20.1563, 14.0484, 4.1986),
                    192: (-20.2016, 13.8895, 4.1211),
                    208: (-20.1227, 13.7788, 3.8858),
                    224: (-19.9682, 13.7647, 3.7993),
                    240: (-19.8333, 13.8532, 3.9743),
                    256: (-19.8011, 14.0058, 4.1828),
                    272: (-19.8914, 14.1559, 4.1531),
                    288: (-20.0487, 14.2379, 3.9239),
                    304: (-20.1759, 14.2161, 3.7939),
                    320: (-20.1948, 14.1, 3.9325),
                }
                float3 xformOp:rotateXYZ = (-90, 235, 145)
                float3 xformOp:scale = (0.24, 0.24, 0.24)
                uniform token[] xformOpOrder = ["xformOp:translate", "xformOp:rotateXYZ", "xformOp:scale"]
            }
            def Xform "Plaque_06" (
                instanceable = true
                prepend apiSchemas = ["MaterialBindingAPI"]
                prepend references = @../assets/plaques.usdc@</root>
            )
            {
                rel material:binding = </World/Materials/Plaque> (bindMaterialAs = "strongerThanDescendants")
                double3 xformOp:translate = (-31, -3, -9)
                double3 xformOp:translate.timeSamples = {
                    0: (-30.8613, -2.8358, -9.0573),
                    16: (-30.8764, -2.8983, -8.9183),
                    32: (-30.9637, -3.0226, -8.8522),
                    48: (-31.0722, -3.1332, -8.9179),
                    64: (-31.1385, -3.1628, -9.0568),
                    80: (-31.1239, -3.0935, -9.1451),
                    96: (-31.0368, -2.9673, -9.1039),
                    112: (-30.9282, -2.861, -8.9701),
                    128: (-30.8616, -2.8392, -8.8629),
                    144: (-30.8759, -2.9151, -8.878),
                    160: (-30.9627, -3.0426, -9.0019),
                    176: (-31.0714, -3.1442, -9.1241),
                    192: (-31.1383, -3.1582, -9.1356),
                    208: (-31.1244, -3.076, -9.0262),
                    224: (-31.0377, -2.9477, -8.8934),
                    240: (-30.9291, -2.8511, -8.8557),
                    256: (-30.8618, -2.845, -8.9467),
                    272: (-30.8754, -2.9331, -9.0852),
                    288: (-30.9618, -3.0619, -9.1477),
                    304: (-31.0705, -3.153, -9.0785),
                    320: (-31.138, -3.1512, -8.9392),
                }
                float3 xformOp:rotateXYZ = (-90, 282, 174)
                float3 xformOp:scale = (0.33, 0.33, 0.33)
                uniform token[] xformOpOrder = ["xformOp:translate", "xformOp:rotateXYZ", "xformOp:scale"]
            }
            def Xform "Plaque_07" (
                instanceable = true
                prepend apiSchemas = ["MaterialBindingAPI"]
                prepend references = @../assets/plaques.usdc@</root>
            )
            {
                rel material:binding = </World/Materials/Plaque> (bindMaterialAs = "strongerThanDescendants")
                double3 xformOp:translate = (-17, 11, 8)
                double3 xformOp:translate.timeSamples = {
                    0: (-17.0122, 10.814, 7.952),
                    16: (-16.883, 10.764, 7.8666),
                    32: (-16.8168, 10.8933, 7.8991),
                    48: (-16.8494, 11.1038, 8.0206),
                    64: (-16.9631, 11.2353, 8.124),
                    80: (-17.0967, 11.188, 8.1178),
                    96: (-17.1782, 10.9978, 8.0077),
                    112: (-17.1636, 10.8092, 7.8907),
                    128: (-17.0609, 10.7657, 7.8703),
                    144: (-16.9254, 10.9003, 7.9644),
                    160: (-16.83, 11.1106, 8.0899),
                    176: (-16.8263, 11.2369, 8.1361),
                    192: (-16.9162, 11.1831, 8.0621),
                    208: (-17.0512, 10.9901, 7.9332),
                    224: (-17.1587, 10.8047, 7.8634),
                    240: (-17.1806, 10.7677, 7.9142),
                    256: (-17.1052, 10.9073, 8.0407),
                    272: (-16.9732, 11.1174, 8.1314),
                    288: (-16.8555, 11.2383, 8.106),
                    304: (-16.8158, 11.178, 7.987),
                    320: (-16.8753, 10.9825, 7.8795),
                }
                float3 xformOp:rotateXYZ = (-90, 329, 203)
                float3 xformOp:scale = (0.27, 0.27, 0.27)
                uniform token[] xformOpOrder = ["xformOp:translate", "xformOp:rotateXYZ", "xformOp:scale"]
            }
            def Xform "Plaque_08" (
                instanceable = true
                prepend apiSchemas = ["MaterialBindingAPI"]
                prepend references = @../assets/plaques.usdc@</root>
            )
            {
                rel material:binding = </World/Materials/Plaque> (bindMaterialAs = "strongerThanDescendants")
                double3 xformOp:translate = (-25, -15, 2)
                double3 xformOp:translate.timeSamples = {
                    0: (-24.8127, -14.7318, 1.9306),
                    16: (-24.9113, -14.7955, 2.1208),
                    32: (-25.0868, -15.0414, 2.1966),
                    48: (-25.187, -15.2504, 2.0862),
                    64: (-25.1249, -15.2362, 1.8943),
                    80: (-24.9544, -15.0115, 1.8024),
                    96: (-24.8235, -14.7765, 1.8976),
                    112: (-24.8457, -14.7407, 2.0898),
                    128: (-25.0018, -14.9361, 2.1969),
                    144: (-25.1564, -15.1884, 2.1176),
                    160: (-25.1752, -15.2728, 1.927),
                    176: (-25.042, -15.1141, 1.8055),
                    192: (-24.8723, -14.8537, 1.8681),
                    208: (-24.8135, -14.7237, 2.0557),
                    224: (-24.9165, -14.84, 2.1905),
                    240: (-25.092, -15.0989, 2.1449),
                    256: (-25.1877, -15.2697, 1.9622),
                    272: (-25.1205, -15.2001, 1.8152),
                    288: (-24.9487, -14.9521, 1.8432),
                    304: (-24.8215, -14.7469, 2.0197),
                    320: (-24.8491, -14.7672, 2.1775),
                }
                float3 xformOp:rotateXYZ = (-90, 16, 232)
                float3 xformOp:scale = (0.31, 0.31, 0.31)
                uniform token[] xformOpOrder = ["xformOp:translate", "xformOp:rotateXYZ", "xformOp:scale"]
            }
            def Xform "Plaque_09" (
                instanceable = true
                prepend apiSchemas = ["MaterialBindingAPI"]
                prepend references = @../assets/plaques.usdc@</root>
            )
            {
                rel material:binding = </World/Materials/Plaque> (bindMaterialAs = "strongerThanDescendants")
                double3 xformOp:translate = (-10, 6, -11)
                double3 xformOp:translate.timeSamples = {
                    0: (-9.7933, 6.1972, -11.0698),
                    16: (-9.8839, 6.1637, -11.1798),
                    32: (-10.0595, 6.0706, -11.1437),
                    48: (-10.1915, 5.9518, -10.991),
                    64: (-10.1835, 5.8506, -10.8455),
                    80: (-10.0411, 5.8037, -10.8256),
                    96: (-9.8687, 5.8284, -10.9473),
                    112: (-9.7924, 5.9155, -11.1118),
                    128: (-9.8679, 6.0333, -11.1855),
                    144: (-10.0401, 6.1391, -11.1086),
                    160: (-10.183, 6.1942, -10.9434),
                    176: (-10.1919, 6.1786, -10.8242),
                    192: (-10.0605, 6.098, -10.8478),
                    208: (-9.8848, 5.9817, -10.995),
                    224: (-9.7934, 5.8721, -11.1462),
                    240: (-9.8532, 5.809, -11.1787),
                    256: (-10.0204, 5.8155, -11.066),
                    272: (-10.1727, 5.8891, -10.8997),
                    288: (-10.1986, 6.0031, -10.8148),
                    304: (-10.0792, 6.116, -10.8803),
                    320: (-9.9018, 6.1866, -11.043),
                }
                float3 xformOp:rotateXYZ = (-90, 63, 261)
                float3 xformOp:scale = (0.38, 0.38, 0.38)
                uniform token[] xformOpOrder = ["xformOp:translate", "xformOp:rotateXYZ", "xformOp:scale"]
            }
        }
        def Scope "ResistingNeuronPlaques"
        {
            def Xform "Plaque_01" (
                instanceable = true
                prepend apiSchemas = ["MaterialBindingAPI"]
                prepend references = @../assets/plaques.usdc@</root>
            )
            {
                rel material:binding = </World/Materials/Plaque> (bindMaterialAs = "strongerThanDescendants")
                double3 xformOp:translate = (7, -7, 5)
                double3 xformOp:translate.timeSamples = {
                    0: (6.9912, -6.8715, 5.0612),
                    16: (6.8817, -6.7643, 5.1782),
                    32: (6.8584, -6.825, 5.207),
                    48: (6.9383, -7.0105, 5.1334),
                    64: (7.0632, -7.1885, 4.9938),
                    80: (7.142, -7.2321, 4.8572),
                    96: (7.1173, -7.1104, 4.7913),
                    112: (7.0071, -6.9099, 4.8287),
                    128: (6.8917, -6.7737, 4.9509),
                    144: (6.8553, -6.7987, 5.0973),
                    160: (6.9243, -6.9672, 5.1956),
                    176: (7.0486, -7.159, 5.1971),
                    192: (7.1374, -7.2376, 5.1011),
                    208: (7.1261, -7.1468, 4.955),
                    224: (7.0228, -6.9514, 4.8312),
                    240: (6.903, -6.7907, 4.7909),
                    256: (6.8538, -6.7791, 4.8541),
                    272: (6.9113, -6.925, 4.9895),
                    288: (7.0334, -7.1243, 5.1301),
                    304: (7.1312, -7.2351, 5.2063),
                    320: (7.1333, -7.1783, 5.1804),
                }
                float3 xformOp:rotateXYZ = (-90, 47, 29)
                float3 xformOp:scale = (0.32, 0.32, 0.32)
                uniform token[] xformOpOrder = ["xformOp:translate", "xformOp:rotateXYZ", "xformOp:scale"]
            }
            def Xform "Plaque_02" (
                instanceable = true
                prepend apiSchemas = ["MaterialBindingAPI"]
                prepend references = @../assets/plaques.usdc@</root>
            )
            {
                rel material:binding = </World/Materials/Plaque> (bindMaterialAs = "strongerThanDescendants")
                double3 xformOp:translate = (12, 10, -6)
                double3 xformOp:translate.timeSamples = {
                    0: (11.9968, 9.9556, -6.036),
                    16: (12.0982, 9.7776, -5.8578),
                    32: (12.1295, 9.7903, -5.8048),
                    48: (12.0686, 9.9826, -5.9238),
                    64: (11.9587, 10.1899, -6.11),
                    80: (11.8783, 10.2344, -6.1992),
                    96: (11.8847, 10.078, -6.113),
                    112: (11.9732, 9.8547, -5.9272),
                    128: (12.0809, 9.756, -5.8056),
                    144: (12.1309, 9.8664, -5.8552),
                    160: (12.0876, 10.0913, -6.0324),
                    176: (11.9818, 10.238, -6.1811),
                    192: (11.889, 10.1807, -6.1702),
                    208: (11.8754, 9.9686, -6.0094),
                    224: (11.9506, 9.7834, -5.8403),
                    240: (12.061, 9.7839, -5.8119),
                    256: (12.128, 9.9696, -5.9492),
                    272: (12.1037, 10.1814, -6.1313),
                    288: (12.0055, 10.2377, -6.1976),
                    304: (11.9034, 10.0903, -6.0899),
                    320: (11.8701, 9.8655, -5.903),
                }
                float3 xformOp:rotateXYZ = (-90, 94, 58)
                float3 xformOp:scale = (0.38, 0.38, 0.38)
                uniform token[] xformOpOrder = ["xformOp:translate", "xformOp:rotateXYZ", "xformOp:scale"]
            }
            def Xform "Plaque_03" (
                instanceable = true
                prepend apiSchemas = ["MaterialBindingAPI"]
                prepend references = @../assets/plaques.usdc@</root>
            )
            {
                rel material:binding = </World/Materials/Plaque> (bindMaterialAs = "strongerThanDescendants")
                double3 xformOp:translate = (21, -12, -5)
                double3 xformOp:translate.timeSamples = {
                    0: (20.8404, -11.9022, -4.9235),
                    16: (20.7946, -11.8497, -5.1143),
                    32: (20.8641, -11.874, -5.1908),
                    48: (21.0099, -11.9627, -5.0766),
                    64: (21.1501, -12.0703, -4.8858),
                    80: (21.2061, -12.1421, -4.8092),
                    96: (21.1463, -12.1413, -4.9233),
                    112: (21.0045, -12.0684, -5.1142),
                    128: (20.8601, -11.9605, -5.1908),
                    144: (20.7943, -11.8728, -5.0767),
                    160: (20.8439, -11.8501, -4.8859),
                    176: (20.9812, -11.9038, -4.8091),
                    192: (21.1291, -12.0067, -4.9232),
                    208: (21.2044, -12.1061, -5.1141),
                    224: (21.1651, -12.1514, -5.1909),
                    240: (21.033, -12.1194, -5.0768),
                    256: (20.8824, -12.0264, -4.886),
                    272: (20.7979, -11.9199, -4.8091),
                    288: (20.8267, -11.8544, -4.9231),
                    304: (20.9529, -11.8631, -5.114),
                    320: (21.1055, -11.9418, -5.1909),
                }
                float3 xformOp:rotateXYZ = (-90, 141, 87)
                float3 xformOp:scale = (0.28, 0.28, 0.28)
                uniform token[] xformOpOrder = ["xformOp:translate", "xformOp:rotateXYZ", "xformOp:scale"]
            }
            def Xform "Plaque_04" (
                instanceable = true
                prepend apiSchemas = ["MaterialBindingAPI"]
                prepend references = @../assets/plaques.usdc@</root>
            )
            {
                rel material:binding = </World/Materials/Plaque> (bindMaterialAs = "strongerThanDescendants")
                double3 xformOp:translate = (27, 7, 7)
                double3 xformOp:translate.timeSamples = {
                    0: (26.9137, 6.787, 7.198),
                    16: (27.0646, 6.9798, 7.0327),
                    32: (27.1614, 7.1832, 6.8312),
                    48: (27.1232, 7.2897, 6.8166),
                    64: (26.9818, 7.243, 7.0051),
                    80: (26.8557, 7.0676, 7.188),
                    96: (26.8504, 6.8565, 7.1627),
                    112: (26.9702, 6.7213, 6.9572),
                    128: (27.115, 6.7336, 6.7991),
                    144: (27.1636, 6.8868, 6.8635),
                    160: (27.0752, 7.0999, 7.079),
                    176: (26.9239, 7.2601, 7.207),
                    192: (26.8363, 7.2828, 7.1058),
                    208: (26.8857, 7.1558, 6.8874),
                    224: (27.0307, 6.9464, 6.7937),
                    240: (27.1501, 6.7654, 6.9284),
                    256: (27.1438, 6.7085, 7.1424),
                    272: (27.0172, 6.8058, 7.1987),
                    288: (26.8762, 7.0059, 7.0349),
                    304: (26.8388, 7.2029, 6.8325),
                    320: (26.9363, 7.2925, 6.8155),
                }
                float3 xformOp:rotateXYZ = (-90, 188, 116)
                float3 xformOp:scale = (0.4, 0.4, 0.4)
                uniform token[] xformOpOrder = ["xformOp:translate", "xformOp:rotateXYZ", "xformOp:scale"]
            }
            def Xform "Plaque_05" (
                instanceable = true
                prepend apiSchemas = ["MaterialBindingAPI"]
                prepend references = @../assets/plaques.usdc@</root>
            )
            {
                rel material:binding = </World/Materials/Plaque> (bindMaterialAs = "strongerThanDescendants")
                double3 xformOp:translate = (32, -3, -6)
                double3 xformOp:translate.timeSamples = {
                    0: (31.9651, -2.9991, -5.8791),
                    16: (31.8524, -2.8384, -5.9585),
                    32: (31.817, -2.7601, -6.0627),
                    48: (31.8775, -2.8039, -6.1294),
                    64: (32.0021, -2.9476, -6.1189),
                    80: (32.1256, -3.118, -6.0374),
                    96: (32.1833, -3.2283, -5.9335),
                    112: (32.145, -3.2223, -5.8694),
                    128: (32.0308, -3.1031, -5.8832),
                    144: (31.9004, -2.9314, -5.9668),
                    160: (31.8222, -2.7946, -6.0702),
                    176: (31.8371, -2.7624, -6.1317),
                    192: (31.9374, -2.8513, -6.1145),
                    208: (32.0705, -3.0159, -6.029),
                    224: (32.1666, -3.1724, -5.9262),
                    240: (32.1755, -3.2411, -5.8674),
                    256: (32.0924, -3.187, -5.8878),
                    272: (31.961, -3.0377, -5.9752),
                    288: (31.85, -2.8691, -6.0774),
                    304: (31.8175, -2.7673, -6.1334),
                    320: (31.8807, -2.7839, -6.1097),
                }
                float3 xformOp:rotateXYZ = (-90, 235, 145)
                float3 xformOp:scale = (0.3, 0.3, 0.3)
                uniform token[] xformOpOrder = ["xformOp:translate", "xformOp:rotateXYZ", "xformOp:scale"]
            }
            def Xform "Plaque_06" (
                instanceable = true
                prepend apiSchemas = ["MaterialBindingAPI"]
                prepend references = @../assets/plaques.usdc@</root>
            )
            {
                rel material:binding = </World/Materials/Plaque> (bindMaterialAs = "strongerThanDescendants")
                double3 xformOp:translate = (18, 15, 4)
                double3 xformOp:translate.timeSamples = {
                    0: (17.9154, 14.9053, 4.1065),
                    16: (17.9942, 15.1372, 4.2048),
                    32: (18.0758, 15.2804, 4.0402),
                    48: (18.1199, 15.2424, 3.824),
                    64: (18.1048, 15.0478, 3.8336),
                    80: (18.0378, 14.8223, 4.0568),
                    96: (17.9521, 14.7116, 4.207),
                    112: (17.8901, 14.7873, 4.0916),
                    128: (17.8825, 15.0004, 3.8586),
                    144: (17.9329, 15.2133, 3.8071),
                    160: (18.0166, 15.2883, 4.0031),
                    176: (18.092, 15.1771, 4.1952),
                    192: (18.1219, 14.9514, 4.1368),
                    208: (18.0916, 14.7571, 3.9028),
                    224: (18.0159, 14.7198, 3.7936),
                    240: (17.9324, 14.8635, 3.9493),
                    256: (17.8823, 15.0954, 4.17),
                    272: (17.8904, 15.2657, 4.1726),
                    288: (17.9527, 15.2642, 3.9537),
                    304: (18.0384, 15.0921, 3.7942),
                    320: (18.1051, 14.8604, 3.8988),
                }
                float3 xformOp:rotateXYZ = (-90, 282, 174)
                float3 xformOp:scale = (0.26, 0.26, 0.26)
                uniform token[] xformOpOrder = ["xformOp:translate", "xformOp:rotateXYZ", "xformOp:scale"]
            }
            def Xform "Plaque_07" (
                instanceable = true
                prepend apiSchemas = ["MaterialBindingAPI"]
                prepend references = @../assets/plaques.usdc@</root>
            )
            {
                rel material:binding = </World/Materials/Plaque> (bindMaterialAs = "strongerThanDescendants")
                double3 xformOp:translate = (35, 11, 2)
                double3 xformOp:translate.timeSamples = {
                    0: (34.9481, 11.1597, 1.8591),
                    16: (34.8536, 11.0843, 2.0244),
                    32: (34.8355, 10.9422, 2.1702),
                    48: (34.9034, 10.8459, 2.1801),
                    64: (35.0217, 10.8716, 2.0461),
                    80: (35.1287, 10.9991, 1.8754),
                    96: (35.1685, 11.1273, 1.8041),
                    112: (35.1202, 11.1546, 1.8893),
                    128: (35.0092, 11.0595, 2.0629),
                    144: (34.8933, 10.9172, 2.1862),
                    160: (34.8332, 10.8405, 2.1609),
                    176: (34.8602, 10.8902, 2.007),
                    192: (34.9602, 11.0268, 1.8476),
                    208: (35.081, 11.1422, 1.8099),
                    224: (35.1595, 11.145, 1.924),
                    240: (35.1547, 11.0329, 2.0988),
                    256: (35.069, 10.8947, 2.1947),
                    272: (34.9474, 10.84, 2.1351),
                    288: (34.8532, 10.912, 1.9676),
                    304: (34.8357, 11.0537, 1.826),
                    320: (34.904, 11.1529, 1.8233),
                }
                float3 xformOp:rotateXYZ = (-90, 329, 203)
                float3 xformOp:scale = (0.22, 0.22, 0.22)
                uniform token[] xformOpOrder = ["xformOp:translate", "xformOp:rotateXYZ", "xformOp:scale"]
            }
            def Xform "Plaque_08" (
                instanceable = true
                prepend apiSchemas = ["MaterialBindingAPI"]
                prepend references = @../assets/plaques.usdc@</root>
            )
            {
                rel material:binding = </World/Materials/Plaque> (bindMaterialAs = "strongerThanDescendants")
                double3 xformOp:translate = (14, -15, 8)
                double3 xformOp:translate.timeSamples = {
                    0: (13.9951, -15.147, 8.066),
                    16: (14.1071, -15.176, 7.8976),
                    32: (14.1615, -15.077, 7.8266),
                    48: (14.1289, -14.922, 7.9205),
                    64: (14.0269, -14.8237, 8.09),
                    80: (13.9104, -14.8537, 8.1739),
                    96: (13.8421, -14.9902, 8.0925),
                    112: (13.8589, -15.1338, 7.9232),
                    128: (13.9516, -15.1801, 7.8269),
                    144: (14.0704, -15.0953, 7.8952),
                    160: (14.1513, -14.9412, 8.0631),
                    176: (14.1507, -14.8299, 8.1711),
                    192: (14.069, -14.8423, 8.1164),
                    208: (13.9501, -14.9695, 7.951),
                    224: (13.8581, -15.1188, 7.8322),
                    240: (13.8425, -15.1817, 7.8729),
                    256: (13.9118, -15.1124, 8.0345),
                    272: (14.0285, -14.9613, 8.1632),
                    288: (14.1299, -14.8383, 8.1368),
                    304: (14.1614, -14.833, 7.9803),
                    320: (14.1059, -14.9492, 7.8426),
                }
                float3 xformOp:rotateXYZ = (-90, 16, 232)
                float3 xformOp:scale = (0.31, 0.31, 0.31)
                uniform token[] xformOpOrder = ["xformOp:translate", "xformOp:rotateXYZ", "xformOp:scale"]
            }
            def Xform "Plaque_09" (
                instanceable = true
                prepend apiSchemas = ["MaterialBindingAPI"]
                prepend references = @../assets/plaques.usdc@</root>
            )
            {
                rel material:binding = </World/Materials/Plaque> (bindMaterialAs = "strongerThanDescendants")
                double3 xformOp:translate = (39, 4, -8)
                double3 xformOp:translate.timeSamples = {
                    0: (39.1688, 4.0725, -8.1045),
                    16: (39.1286, 4.154, -8.135),
                    32: (38.9888, 4.1607, -8.0247),
                    48: (38.8577, 4.0892, -7.8886),
                    64: (38.8368, 3.9744, -7.8687),
                    80: (38.9424, 3.872, -7.9856),
                    96: (39.0927, 3.8319, -8.1176),
                    112: (39.1711, 3.8734, -8.1269),
                    128: (39.1169, 3.9764, -8.0039),
                    144: (38.9721, 4.091, -7.8768),
                    160: (38.849, 4.1613, -7.8782),
                    176: (38.8428, 4.1532, -8.0065),
                    192: (38.9585, 4.0707, -8.1281),
                    208: (39.1063, 3.9538, -8.1161),
                    224: (39.1718, 3.8594, -7.983),
                    240: (39.1041, 3.8333, -7.8677),
                    256: (38.9557, 3.8882, -7.8903),
                    272: (38.8417, 3.9975, -8.0273),
                    288: (38.8503, 4.1079, -8.1358),
                    304: (38.975, 4.166, -8.1027),
                    320: (39.119, 4.1433, -7.9625),
                }
                float3 xformOp:rotateXYZ = (-90, 63, 261)
                float3 xformOp:scale = (0.25, 0.25, 0.25)
                uniform token[] xformOpOrder = ["xformOp:translate", "xformOp:rotateXYZ", "xformOp:scale"]
            }
            def Xform "Plaque_10" (
                instanceable = true
                prepend apiSchemas = ["MaterialBindingAPI"]
                prepend references = @../assets/plaques.usdc@</root>
            )
            {
                rel material:binding = </World/Materials/Plaque> (bindMaterialAs = "strongerThanDescendants")
                double3 xformOp:translate = (24, 19, 9)
                double3 xformOp:translate.timeSamples = {
                    0: (24.1393, 19.2112, 8.9188),
                    16: (24.0952, 19.2837, 9.0862),
                    32: (23.9527, 19.1582, 9.1966),
                    48: (23.8591, 18.9224, 9.1772),
                    64: (23.9112, 18.7407, 9.0408),
                    80: (24.0551, 18.7399, 8.8775),
                    96: (24.1421, 18.9206, 8.795),
                    112: (24.0821, 19.1567, 8.8479),
                    128: (23.9373, 19.2834, 9.0012),
                    144: (23.8573, 19.2124, 9.1537),
                    160: (23.9248, 18.9931, 9.2047),
                    176: (24.0701, 18.7787, 9.1206),
                    192: (24.1429, 18.7186, 8.9568),
                    208: (24.068, 18.8549, 8.8215),
                    224: (23.9228, 19.0924, 8.8041),
                    240: (23.8574, 19.2655, 8.9161),
                    256: (23.9395, 19.2532, 9.0834),
                    272: (24.0841, 19.0643, 9.1957),
                    288: (24.1418, 18.8305, 9.1787),
                    304: (24.0529, 18.715, 9.0438),
                    320: (23.9093, 18.7983, 8.8799),
                }
                float3 xformOp:rotateXYZ = (-90, 110, 290)
                float3 xformOp:scale = (0.35, 0.35, 0.35)
                uniform token[] xformOpOrder = ["xformOp:translate", "xformOp:rotateXYZ", "xformOp:scale"]
            }
            def Xform "Plaque_11" (
                instanceable = true
                prepend apiSchemas = ["MaterialBindingAPI"]
                prepend references = @../assets/plaques.usdc@</root>
            )
            {
                rel material:binding = </World/Materials/Plaque> (bindMaterialAs = "strongerThanDescendants")
                double3 xformOp:translate = (9, -9, -7)
                double3 xformOp:translate.timeSamples = {
                    0: (9.0743, -8.898, -6.9592),
                    16: (8.9489, -9.0874, -7.1631),
                    32: (8.8492, -9.2125, -7.1676),
                    48: (8.8256, -9.181, -6.9673),
                    64: (8.89, -9.0162, -6.8069),
                    80: (9.0099, -8.8395, -6.8826),
                    96: (9.1248, -8.781, -7.1018),
                    112: (9.1768, -8.8838, -7.1965),
                    128: (9.1395, -9.0723, -7.0511),
                    144: (9.0319, -9.2075, -6.8432),
                    160: (8.9082, -9.1899, -6.827),
                    176: (8.8308, -9.0324, -7.0223),
                    192: (8.8387, -8.8511, -7.1904),
                    208: (8.928, -8.7794, -7.1257),
                    224: (9.0536, -8.8703, -6.9074),
                    240: (9.1522, -9.0567, -6.8023),
                    256: (9.1739, -9.2013, -6.9389),
                    272: (9.108, -9.1977, -7.1502),
                    288: (8.9875, -9.0484, -7.1779),
                    304: (8.8734, -8.8635, -6.9882),
                    320: (8.8231, -8.7791, -6.8129),
                }
                float3 xformOp:rotateXYZ = (-90, 157, 319)
                float3 xformOp:scale = (0.29, 0.29, 0.29)
                uniform token[] xformOpOrder = ["xformOp:translate", "xformOp:rotateXYZ", "xformOp:scale"]
            }
            def Xform "Plaque_12" (
                instanceable = true
                prepend apiSchemas = ["MaterialBindingAPI"]
                prepend references = @../assets/plaques.usdc@</root>
            )
            {
                rel material:binding = </World/Materials/Plaque> (bindMaterialAs = "strongerThanDescendants")
                double3 xformOp:translate = (30, -18, 3)
                double3 xformOp:translate.timeSamples = {
                    0: (29.8527, -17.749, 3.2032),
                    16: (30.0344, -17.8208, 3.177),
                    32: (30.1816, -17.9973, 2.9876),
                    48: (30.1469, -18.1754, 2.8096),
                    64: (29.965, -18.251, 2.8072),
                    80: (29.8182, -18.18, 2.9827),
                    96: (29.8534, -18.0038, 3.1741),
                    112: (30.0355, -17.8254, 3.2049),
                    128: (30.182, -17.749, 3.0468),
                    144: (30.1462, -17.8192, 2.8455),
                    160: (29.9639, -17.9951, 2.7867),
                    176: (29.8178, -18.1738, 2.9246),
                    192: (29.8542, -18.2509, 3.1321),
                    208: (30.0367, -18.1815, 3.2177),
                    224: (30.1824, -18.0061, 3.1025),
                    240: (30.1454, -17.8271, 2.8928),
                    256: (29.9627, -17.7491, 2.7819),
                    272: (29.8174, -17.8177, 2.8722),
                    288: (29.855, -17.9928, 3.0803),
                    304: (30.0379, -18.1721, 3.2144),
                    320: (30.1828, -18.2509, 3.1507),
                }
                float3 xformOp:rotateXYZ = (-90, 204, 348)
                float3 xformOp:scale = (0.37, 0.37, 0.37)
                uniform token[] xformOpOrder = ["xformOp:translate", "xformOp:rotateXYZ", "xformOp:scale"]
            }
            def Xform "Plaque_13" (
                instanceable = true
                prepend apiSchemas = ["MaterialBindingAPI"]
                prepend references = @../assets/plaques.usdc@</root>
            )
            {
                rel material:binding = </World/Materials/Plaque> (bindMaterialAs = "strongerThanDescendants")
                double3 xformOp:translate = (42, 8, -4)
                double3 xformOp:translate.timeSamples = {
                    0: (41.8739, 7.9337, -3.9538),
                    16: (42.0142, 7.8294, -3.8592),
                    32: (42.1425, 7.7868, -3.8808),
                    48: (42.1498, 7.8213, -4.0009),
                    64: (42.0299, 7.9203, -4.1202),
                    80: (41.8846, 8.0482, -4.1403),
                    96: (41.8373, 8.1586, -4.0446),
                    112: (41.9281, 8.2117, -3.9121),
                    128: (42.0799, 8.1883, -3.8522),
                    144: (42.1639, 8.0968, -3.9143),
                    160: (42.1088, 7.9703, -4.0472),
                    176: (41.9613, 7.8546, -4.1411),
                    192: (41.8467, 7.7914, -4.1186),
                    208: (41.8622, 7.8036, -3.9981),
                    224: (41.9947, 7.8868, -3.8792),
                    240: (42.1317, 8.0109, -3.86),
                    256: (42.1569, 8.1311, -3.9564),
                    272: (42.0489, 8.2039, -4.0888),
                    288: (41.8994, 8.203, -4.1478),
                    304: (41.8353, 8.1287, -4.0849),
                    320: (41.9111, 8.0079, -3.9518),
                }
                float3 xformOp:rotateXYZ = (-90, 251, 17)
                float3 xformOp:scale = (0.23, 0.23, 0.23)
                uniform token[] xformOpOrder = ["xformOp:translate", "xformOp:rotateXYZ", "xformOp:scale"]
            }
        }
        def Scope "EnvironmentPlaques"
        {
            def Xform "Plaque_01" (
                instanceable = true
                prepend apiSchemas = ["MaterialBindingAPI"]
                prepend references = @../assets/plaques.usdc@</root>
            )
            {
                rel material:binding = </World/Materials/Plaque> (bindMaterialAs = "strongerThanDescendants")
                double3 xformOp:translate = (-42, -18, -12)
                double3 xformOp:translate.timeSamples = {
                    0: (-41.9802, -17.7317, -11.8737),
                    16: (-42.1242, -17.7466, -12.1031),
                    32: (-42.2114, -17.859, -12.2167),
                    48: (-42.2016, -18.0257, -12.0868),
                    64: (-42.0995, -18.1824, -11.8593),
                    80: (-41.9518, -18.269, -11.79),
                    96: (-41.8262, -18.2521, -11.9566),
                    112: (-41.7802, -18.1382, -12.172),
                    128: (-41.8349, -17.9711, -12.1941),
                    144: (-41.9653, -17.8152, -11.9981),
                    160: (-42.1116, -17.7303, -11.8042),
                    176: (-42.2067, -17.7492, -11.8304),
                    192: (-42.2072, -17.8646, -12.0472),
                    208: (-42.1127, -18.0321, -12.211),
                    224: (-41.9666, -18.1872, -12.1377),
                    240: (-41.8358, -18.2703, -11.9097),
                    256: (-41.7802, -18.2494, -11.7832),
                    272: (-41.8254, -18.1326, -11.9003),
                    288: (-41.9506, -17.9648, -12.1295),
                    304: (-42.0984, -17.8105, -12.2132),
                    320: (-42.2011, -17.7291, -12.0573),
                }
                float3 xformOp:rotateXYZ = (-90, 31, 17)
                float3 xformOp:scale = (0.26, 0.26, 0.26)
                uniform token[] xformOpOrder = ["xformOp:translate", "xformOp:rotateXYZ", "xformOp:scale"]
            }
            def Xform "Plaque_02" (
                instanceable = true
                prepend apiSchemas = ["MaterialBindingAPI"]
                prepend references = @../assets/plaques.usdc@</root>
            )
            {
                rel material:binding = </World/Materials/Plaque> (bindMaterialAs = "strongerThanDescendants")
                double3 xformOp:translate = (-36, 17, 13)
                double3 xformOp:translate.timeSamples = {
                    0: (-35.9415, 16.9452, 12.9937),
                    16: (-36.0565, 17.0769, 13.1723),
                    32: (-36.1243, 17.1773, 13.2104),
                    48: (-36.0883, 17.2056, 13.0769),
                    64: (-35.9785, 17.1503, 12.8807),
                    80: (-35.8867, 17.0339, 12.7818),
                    96: (-35.8895, 16.9036, 12.8608),
                    112: (-35.9846, 16.8126, 13.0533),
                    128: (-36.0926, 16.7978, 13.2023),
                    144: (-36.1232, 16.8652, 13.1864),
                    160: (-36.0509, 16.9875, 13.0184),
                    176: (-35.9361, 17.1148, 12.8355),
                    192: (-35.8746, 17.1955, 12.7867),
                    208: (-35.9179, 17.1966, 12.9118),
                    224: (-36.0297, 17.1178, 13.1089),
                    240: (-36.1167, 16.9911, 13.2172),
                    256: (-36.1062, 16.868, 13.1483),
                    272: (-36.007, 16.7986, 12.9586),
                    288: (-35.9019, 16.8111, 12.8026),
                    304: (-35.8788, 16.9004, 12.8076),
                    320: (-35.9569, 17.0303, 12.9695),
                }
                float3 xformOp:rotateXYZ = (-90, 78, 46)
                float3 xformOp:scale = (0.34, 0.34, 0.34)
                uniform token[] xformOpOrder = ["xformOp:translate", "xformOp:rotateXYZ", "xformOp:scale"]
            }
            def Xform "Plaque_03" (
                instanceable = true
                prepend apiSchemas = ["MaterialBindingAPI"]
                prepend references = @../assets/plaques.usdc@</root>
            )
            {
                rel material:binding = </World/Materials/Plaque> (bindMaterialAs = "strongerThanDescendants")
                double3 xformOp:translate = (-29, 2, -18)
                double3 xformOp:translate.timeSamples = {
                    0: (-29.046, 1.7423, -17.9524),
                    16: (-29.1635, 1.7853, -17.8721),
                    32: (-29.1488, 1.9031, -17.8838),
                    48: (-29.0138, 2.0547, -17.9792),
                    64: (-28.8677, 2.1872, -18.0895),
                    80: (-28.8285, 2.2545, -18.1354),
                    96: (-28.928, 2.2332, -18.0839),
                    112: (-29.0857, 2.1307, -17.9719),
                    128: (-29.1741, 1.9826, -17.8802),
                    144: (-29.1218, 1.8406, -17.8747),
                    160: (-28.971, 1.7541, -17.9593),
                    176: (-28.8437, 1.7533, -18.0733),
                    192: (-28.8427, 1.8384, -18.1344),
                    208: (-28.9689, 1.9797, -18.0989),
                    224: (-29.1202, 2.1282, -17.9922),
                    240: (-29.1744, 2.232, -17.8911),
                    256: (-29.0876, 2.255, -17.8684),
                    272: (-28.9299, 2.1892, -17.9404),
                    288: (-28.829, 2.0575, -18.0553),
                    304: (-28.8663, 1.9058, -18.1304),
                    320: (-29.0117, 1.7869, -18.1117),
                }
                float3 xformOp:rotateXYZ = (-90, 125, 75)
                float3 xformOp:scale = (0.22, 0.22, 0.22)
                uniform token[] xformOpOrder = ["xformOp:translate", "xformOp:rotateXYZ", "xformOp:scale"]
            }
            def Xform "Plaque_04" (
                instanceable = true
                prepend apiSchemas = ["MaterialBindingAPI"]
                prepend references = @../assets/plaques.usdc@</root>
            )
            {
                rel material:binding = </World/Materials/Plaque> (bindMaterialAs = "strongerThanDescendants")
                double3 xformOp:translate = (-11, 20, -11)
                double3 xformOp:translate.timeSamples = {
                    0: (-10.8359, 19.8732, -11.183),
                    16: (-10.8535, 19.79, -11.1549),
                    32: (-11.0085, 19.7804, -10.9335),
                    48: (-11.1555, 19.8478, -10.795),
                    64: (-11.1567, 19.9685, -10.9124),
                    80: (-11.0109, 20.1003, -11.1391),
                    96: (-10.8549, 20.1969, -11.1922),
                    112: (-10.835, 20.2245, -11.0053),
                    128: (-10.9698, 20.1734, -10.8119),
                    144: (-11.133, 20.0615, -10.8532),
                    160: (-11.1714, 19.9281, -11.0778),
                    176: (-11.0491, 19.8199, -11.2053),
                    192: (-10.8807, 19.7748, -11.0765),
                    208: (-10.8242, 19.8086, -10.8523),
                    224: (-10.9326, 19.9096, -10.8124),
                    240: (-11.1041, 20.0422, -11.0067),
                    256: (-11.1781, 20.16, -11.1926),
                    272: (-11.085, 20.2218, -11.1381),
                    288: (-10.9122, 20.2058, -10.9112),
                    304: (-10.8218, 20.1176, -10.7951),
                    320: (-10.8985, 19.9883, -10.9347),
                }
                float3 xformOp:rotateXYZ = (-90, 172, 104)
                float3 xformOp:scale = (0.3, 0.3, 0.3)
                uniform token[] xformOpOrder = ["xformOp:translate", "xformOp:rotateXYZ", "xformOp:scale"]
            }
            def Xform "Plaque_05" (
                instanceable = true
                prepend apiSchemas = ["MaterialBindingAPI"]
                prepend references = @../assets/plaques.usdc@</root>
            )
            {
                rel material:binding = </World/Materials/Plaque> (bindMaterialAs = "strongerThanDescendants")
                double3 xformOp:translate = (-5, -18, 14)
                double3 xformOp:translate.timeSamples = {
                    0: (-4.9302, -18.0843, 13.9702),
                    16: (-5.0627, -18.1586, 13.824),
                    32: (-5.1417, -18.1563, 13.7996),
                    48: (-5.1, -18.0785, 13.9139),
                    64: (-4.973, -17.9627, 14.0878),
                    80: (-4.8691, -17.865, 14.2009),
                    96: (-4.8767, -17.8325, 14.175),
                    112: (-4.9894, -17.8809, 14.0279),
                    128: (-5.1111, -17.9868, 13.8615),
                    144: (-5.1382, -18.0992, 13.791),
                    160: (-5.0475, -18.1636, 13.8652),
                    176: (-4.9163, -18.149, 14.0327),
                    192: (-4.8565, -18.0624, 14.1776),
                    208: (-4.9189, -17.9457, 14.1996),
                    224: (-5.0505, -17.8552, 14.0834),
                    240: (-5.139, -17.8347, 13.9096),
                    256: (-5.1091, -17.894, 13.7983),
                    272: (-4.9862, -18.0046, 13.8266),
                    288: (-4.8751, -18.1129, 13.975),
                    304: (-4.8704, -18.1667, 14.1406),
                    320: (-4.9762, -18.1399, 14.209),
                }
                float3 xformOp:rotateXYZ = (-90, 219, 133)
                float3 xformOp:scale = (0.38, 0.38, 0.38)
                uniform token[] xformOpOrder = ["xformOp:translate", "xformOp:rotateXYZ", "xformOp:scale"]
            }
            def Xform "Plaque_06" (
                instanceable = true
                prepend apiSchemas = ["MaterialBindingAPI"]
                prepend references = @../assets/plaques.usdc@</root>
            )
            {
                rel material:binding = </World/Materials/Plaque> (bindMaterialAs = "strongerThanDescendants")
                double3 xformOp:translate = (0, 12, -16)
                double3 xformOp:translate.timeSamples = {
                    0: (0.203, 12.1652, -16.1916),
                    16: (0.0617, 12.0649, -16.1268),
                    32: (-0.1327, 11.9264, -15.9785),
                    48: (-0.213, 11.8312, -15.8444),
                    64: (-0.1104, 11.8353, -15.8127),
                    80: (0.0871, 11.9363, -15.9044),
                    96: (0.2097, 12.0748, -16.0591),
                    112: (0.1523, 12.1693, -16.1748),
                    128: (-0.036, 12.1642, -16.1754),
                    144: (-0.1934, 12.0625, -16.0605),
                    160: (-0.1846, 11.924, -15.9057),
                    176: (-0.0173, 11.8303, -15.813),
                    192: (0.1649, 11.8364, -15.8435),
                    208: (0.2054, 11.9387, -15.977),
                    224: (0.0695, 12.0771, -16.1257),
                    240: (-0.1261, 12.1702, -16.1916),
                    256: (-0.2134, 12.1631, -16.1313),
                    272: (-0.1174, 12.06, -15.9845),
                    288: (0.0795, 11.9217, -15.848),
                    304: (0.2081, 11.8294, -15.8115),
                    320: (0.1579, 11.8375, -15.8992),
                }
                float3 xformOp:rotateXYZ = (-90, 266, 162)
                float3 xformOp:scale = (0.24, 0.24, 0.24)
                uniform token[] xformOpOrder = ["xformOp:translate", "xformOp:rotateXYZ", "xformOp:scale"]
            }
            def Xform "Plaque_07" (
                instanceable = true
                prepend apiSchemas = ["MaterialBindingAPI"]
                prepend references = @../assets/plaques.usdc@</root>
            )
            {
                rel material:binding = </World/Materials/Plaque> (bindMaterialAs = "strongerThanDescendants")
                double3 xformOp:translate = (3, -4, 18)
                double3 xformOp:translate.timeSamples = {
                    0: (3.1267, -4.0891, 17.8504),
                    16: (3.0916, -3.8881, 18.0723),
                    32: (3.0168, -3.7819, 18.2173),
                    48: (2.9347, -3.8604, 18.1313),
                    64: (2.881, -4.0571, 17.9056),
                    80: (2.8788, -4.2055, 17.7804),
                    96: (2.9293, -4.1798, 17.8886),
                    112: (3.0104, -4.0019, 18.1153),
                    128: (3.087, -3.8224, 18.2194),
                    144: (3.1259, -3.7933, 18.0901),
                    160: (3.1101, -3.9392, 17.865),
                    176: (3.0466, -4.1367, 17.7835),
                    192: (2.9628, -4.2183, 17.9322),
                    208: (2.8952, -4.1151, 18.153),
                    224: (2.873, -3.9144, 18.2111),
                    240: (2.906, -3.7862, 18.0448),
                    256: (2.9797, -3.839, 17.8308),
                    272: (3.0623, -4.0282, 17.7968),
                    288: (3.1178, -4.1935, 17.9789),
                    304: (3.1222, -4.1949, 18.1834),
                    320: (3.0736, -4.0313, 18.193),
                }
                float3 xformOp:rotateXYZ = (-90, 313, 191)
                float3 xformOp:scale = (0.32, 0.32, 0.32)
                uniform token[] xformOpOrder = ["xformOp:translate", "xformOp:rotateXYZ", "xformOp:scale"]
            }
            def Xform "Plaque_08" (
                instanceable = true
                prepend apiSchemas = ["MaterialBindingAPI"]
                prepend references = @../assets/plaques.usdc@</root>
            )
            {
                rel material:binding = </World/Materials/Plaque> (bindMaterialAs = "strongerThanDescendants")
                double3 xformOp:translate = (10, 21, 12)
                double3 xformOp:translate.timeSamples = {
                    0: (9.9833, 20.8308, 12.0067),
                    16: (10.1238, 20.7951, 12.1072),
                    32: (10.2031, 20.8488, 12.133),
                    48: (10.1822, 20.9686, 12.0661),
                    64: (10.0713, 21.1021, 11.953),
                    80: (9.9252, 21.191, 11.8727),
                    96: (9.816, 21.1965, 11.8812),
                    112: (9.7977, 21.1161, 11.9725),
                    128: (9.8792, 20.985, 12.083),
                    144: (10.0204, 20.8605, 12.1356),
                    160: (10.1515, 20.7969, 12.0937),
                    176: (10.2078, 20.822, 11.9864),
                    192: (10.1615, 20.9249, 11.8886),
                    208: (10.0355, 21.0606, 11.8685),
                    224: (9.892, 21.1698, 11.9401),
                    240: (9.8018, 21.2048, 12.0534),
                    256: (9.8094, 21.1504, 12.1295),
                    272: (9.9112, 21.0303, 12.1153),
                    288: (10.0568, 20.8969, 12.0207),
                    304: (10.1743, 20.8086, 11.9116),
                    320: (10.2058, 20.8039, 11.8642),
                }
                float3 xformOp:rotateXYZ = (-90, 360, 220)
                float3 xformOp:scale = (0.28, 0.28, 0.28)
                uniform token[] xformOpOrder = ["xformOp:translate", "xformOp:rotateXYZ", "xformOp:scale"]
            }
            def Xform "Plaque_09" (
                instanceable = true
                prepend apiSchemas = ["MaterialBindingAPI"]
                prepend references = @../assets/plaques.usdc@</root>
            )
            {
                rel material:binding = </World/Materials/Plaque> (bindMaterialAs = "strongerThanDescendants")
                double3 xformOp:translate = (25, -20, 13)
                double3 xformOp:translate.timeSamples = {
                    0: (25.1257, -20.064, 13.1845),
                    16: (25.1972, -20.1852, 13.0504),
                    32: (25.1793, -20.1607, 12.8561),
                    48: (25.0801, -20.0098, 12.8337),
                    64: (24.9445, -19.8512, 13.0101),
                    80: (24.8341, -19.8096, 13.1744),
                    96: (24.799, -19.9178, 13.1303),
                    112: (24.8551, -20.0906, 12.9305),
                    128: (24.9769, -20.1922, 12.8138),
                    144: (25.1092, -20.1425, 12.9195),
                    160: (25.192, -19.9808, 13.1215),
                    176: (25.1877, -19.8341, 13.1783),
                    192: (25.0982, -19.818, 13.022),
                    208: (24.9642, -19.945, 12.8395),
                    224: (24.8464, -20.1153, 12.8487),
                    240: (24.7983, -20.1949, 13.0387),
                    256: (24.8417, -20.1211, 13.1824),
                    272: (24.957, -19.9521, 13.1081),
                    288: (25.0917, -19.8208, 12.9046),
                    304: (25.1848, -19.8304, 12.8151),
                    320: (25.1941, -19.9735, 12.9465),
                }
                float3 xformOp:rotateXYZ = (-90, 47, 249)
                float3 xformOp:scale = (0.36, 0.36, 0.36)
                uniform token[] xformOpOrder = ["xformOp:translate", "xformOp:rotateXYZ", "xformOp:scale"]
            }
            def Xform "Plaque_10" (
                instanceable = true
                prepend apiSchemas = ["MaterialBindingAPI"]
                prepend references = @../assets/plaques.usdc@</root>
            )
            {
                rel material:binding = </World/Materials/Plaque> (bindMaterialAs = "strongerThanDescendants")
                double3 xformOp:translate = (31, 18, -13)
                double3 xformOp:translate.timeSamples = {
                    0: (30.8989, 17.7879, -12.9231),
                    16: (31.0341, 17.9696, -12.86),
                    32: (31.1494, 18.1718, -12.9072),
                    48: (31.1772, 18.2576, -13.0275),
                    64: (31.1013, 18.1688, -13.1262),
                    80: (30.9661, 17.9656, -13.1254),
                    96: (30.8507, 17.7857, -13.0259),
                    112: (30.8227, 17.751, -12.9059),
                    128: (30.8985, 17.8852, -12.8601),
                    144: (31.0337, 18.0971, -12.9245),
                    160: (31.1492, 18.2433, -13.0484),
                    176: (31.1773, 18.2245, -13.1341),
                    192: (31.1017, 18.0536, -13.1142),
                    208: (30.9666, 17.8464, -13.0043),
                    224: (30.851, 17.7433, -12.891),
                    240: (30.8226, 17.8142, -12.8636),
                    256: (30.8981, 18.011, -12.9436),
                    272: (31.0332, 18.2004, -13.0681),
                    288: (31.1489, 18.254, -13.1389),
                    304: (31.1774, 18.1354, -13.1003),
                    320: (31.1021, 17.925, -12.9827),
                }
                float3 xformOp:rotateXYZ = (-90, 94, 278)
                float3 xformOp:scale = (0.26, 0.26, 0.26)
                uniform token[] xformOpOrder = ["xformOp:translate", "xformOp:rotateXYZ", "xformOp:scale"]
            }
            def Xform "Plaque_11" (
                instanceable = true
                prepend apiSchemas = ["MaterialBindingAPI"]
                prepend references = @../assets/plaques.usdc@</root>
            )
            {
                rel material:binding = </World/Materials/Plaque> (bindMaterialAs = "strongerThanDescendants")
                double3 xformOp:translate = (40, -12, -10)
                double3 xformOp:translate.timeSamples = {
                    0: (39.8379, -12.0611, -9.9472),
                    16: (39.874, -12.1632, -10.0676),
                    32: (39.9757, -12.1895, -10.12),
                    48: (40.09, -12.1279, -10.0518),
                    64: (40.1575, -12.0069, -9.9315),
                    80: (40.1431, -11.8827, -9.8801),
                    96: (40.0543, -11.813, -9.9492),
                    112: (39.9373, -11.8301, -10.0694),
                    128: (39.8529, -11.926, -10.1198),
                    144: (39.845, -12.0564, -10.0498),
                    160: (39.9177, -12.1605, -9.9297),
                    176: (40.0332, -12.1902, -9.8803),
                    192: (40.1315, -12.1315, -9.9512),
                    208: (40.1614, -12.0118, -10.0712),
                    224: (40.1073, -11.8867, -10.1196),
                    240: (39.9975, -11.8141, -10.0477),
                    256: (39.8889, -11.8278, -9.9279),
                    272: (39.8382, -11.9215, -9.8805),
                    288: (39.8715, -12.0516, -9.9533),
                    304: (39.9717, -12.1578, -10.073),
                    320: (40.0866, -12.1907, -10.1193),
                }
                float3 xformOp:rotateXYZ = (-90, 141, 307)
                float3 xformOp:scale = (0.33, 0.33, 0.33)
                uniform token[] xformOpOrder = ["xformOp:translate", "xformOp:rotateXYZ", "xformOp:scale"]
            }
            def Xform "Plaque_12" (
                instanceable = true
                prepend apiSchemas = ["MaterialBindingAPI"]
                prepend references = @../assets/plaques.usdc@</root>
            )
            {
                rel material:binding = </World/Materials/Plaque> (bindMaterialAs = "strongerThanDescendants")
                double3 xformOp:translate = (44, 9, 14)
                double3 xformOp:translate.timeSamples = {
                    0: (43.9401, 9.1293, 14.1495),
                    16: (43.8866, 9.1607, 14.2083),
                    32: (43.886, 9.1107, 14.1487),
                    48: (43.9386, 9.0046, 14.0046),
                    64: (44.0198, 8.8962, 13.8579),
                    80: (44.0918, 8.8404, 13.7919),
                    96: (44.121, 8.8654, 13.8442),
                    112: (44.0937, 8.9585, 13.9849),
                    128: (44.0227, 9.0726, 14.1343),
                    144: (43.9411, 9.15, 14.2073),
                    160: (43.887, 9.1514, 14.1626),
                    176: (43.8856, 9.0762, 14.0255),
                    192: (43.9376, 8.9624, 13.8739),
                    208: (44.0186, 8.8676, 13.794),
                    224: (44.091, 8.8399, 13.8311),
                    240: (44.1209, 8.8932, 13.9642),
                    256: (44.0945, 9.0006, 14.1177),
                    272: (44.0239, 9.1077, 14.2043),
                    288: (43.9422, 9.1603, 14.1748),
                    304: (43.8875, 9.1317, 14.046),
                    320: (43.8852, 9.0364, 13.8911),
                }
                float3 xformOp:rotateXYZ = (-90, 188, 336)
                float3 xformOp:scale = (0.23, 0.23, 0.23)
                uniform token[] xformOpOrder = ["xformOp:translate", "xformOp:rotateXYZ", "xformOp:scale"]
            }
            def Xform "Plaque_13" (
                instanceable = true
                prepend apiSchemas = ["MaterialBindingAPI"]
                prepend references = @../assets/plaques.usdc@</root>
            )
            {
                rel material:binding = </World/Materials/Plaque> (bindMaterialAs = "strongerThanDescendants")
                double3 xformOp:translate = (-46, -10, 7)
                double3 xformOp:translate.timeSamples = {
                    0: (-45.8492, -9.8286, 6.804),
                    16: (-45.8853, -9.7285, 6.9418),
                    32: (-45.9768, -9.7287, 7.1417),
                    48: (-46.0795, -9.8288, 7.1904),
                    64: (-46.1438, -9.9921, 7.0359),
                    80: (-46.1387, -10.1584, 6.843),
                    96: (-46.0665, -10.2662, 6.8177),
                    112: (-45.9623, -10.2758, 6.9869),
                    128: (-45.8762, -10.1837, 7.1701),
                    144: (-45.85, -10.0239, 7.1717),
                    160: (-45.8962, -9.8552, 6.9901),
                    176: (-45.9925, -9.74, 6.819),
                    192: (-46.0925, -9.7206, 6.8411),
                    208: (-46.1478, -9.8043, 7.0327),
                    224: (-46.1317, -9.9602, 7.1895),
                    240: (-46.052, -10.1307, 7.144),
                    256: (-45.9472, -10.253, 6.9448),
                    272: (-45.8679, -10.2821, 6.8046),
                    288: (-45.8524, -10.2071, 6.8729),
                    304: (-45.9081, -10.0557, 7.0768),
                    320: (-46.0083, -9.8838, 7.1988),
                }
                float3 xformOp:rotateXYZ = (-90, 235, 5)
                float3 xformOp:scale = (0.29, 0.29, 0.29)
                uniform token[] xformOpOrder = ["xformOp:translate", "xformOp:rotateXYZ", "xformOp:scale"]
            }
            def Xform "Plaque_14" (
                instanceable = true
                prepend apiSchemas = ["MaterialBindingAPI"]
                prepend references = @../assets/plaques.usdc@</root>
            )
            {
                rel material:binding = </World/Materials/Plaque> (bindMaterialAs = "strongerThanDescendants")
                double3 xformOp:translate = (-40, 15, -14)
                double3 xformOp:translate.timeSamples = {
                    0: (-40.031, 14.8042, -14.1234),
                    16: (-39.8416, 14.8844, -13.9969),
                    32: (-39.8012, 15.0061, -13.872),
                    48: (-39.9478, 15.1256, -13.818),
                    64: (-40.1435, 15.2, -13.8647),
                    80: (-40.2042, 15.2025, -13.9863),
                    96: (-40.0728, 15.1321, -14.1155),
                    112: (-39.8729, 15.0143, -14.1807),
                    128: (-39.7926, 14.8914, -14.1459),
                    144: (-39.9074, 14.8075, -14.0303),
                    160: (-40.1094, 14.7928, -13.898),
                    176: (-40.2084, 14.8526, -13.8221),
                    192: (-40.1114, 14.9654, -13.8447),
                    208: (-39.9096, 15.0906, -13.9532),
                    224: (-39.7928, 15.1833, -14.0877),
                    240: (-39.871, 15.2101, -14.1736),
                    256: (-40.0705, 15.1613, -14.1634),
                    272: (-40.2037, 15.0546, -14.0628),
                    288: (-40.1452, 14.9282, -13.9274),
                    304: (-39.9501, 14.8277, -13.8322),
                    320: (-39.8019, 14.789, -13.8299),
                }
                float3 xformOp:rotateXYZ = (-90, 282, 34)
                float3 xformOp:scale = (0.34, 0.34, 0.34)
                uniform token[] xformOpOrder = ["xformOp:translate", "xformOp:rotateXYZ", "xformOp:scale"]
            }
            def Xform "Plaque_15" (
                instanceable = true
                prepend apiSchemas = ["MaterialBindingAPI"]
                prepend references = @../assets/plaques.usdc@</root>
            )
            {
                rel material:binding = </World/Materials/Plaque> (bindMaterialAs = "strongerThanDescendants")
                double3 xformOp:translate = (-33, -22, 3)
                double3 xformOp:translate.timeSamples = {
                    0: (-33.1137, -21.741, 2.851),
                    16: (-33.0587, -21.8093, 2.9169),
                    32: (-32.9769, -21.954, 3.0288),
                    48: (-32.9057, -22.1171, 3.1248),
                    64: (-32.8775, -22.2333, 3.1516),
                    80: (-32.9053, -22.2561, 3.0946),
                    96: (-32.9763, -22.1764, 2.9851),
                    112: (-33.0581, -22.0261, 2.8839),
                    128: (-33.1134, -21.8653, 2.847),
                    144: (-33.1169, -21.7584, 2.8948),
                    160: (-33.0671, -21.7483, 3.0009),
                    176: (-32.9866, -21.8389, 3.1065),
                    192: (-32.9122, -21.994, 3.1531),
                    208: (-32.8779, -22.1515, 3.1149),
                    224: (-32.8994, -22.2484, 3.0131),
                    240: (-32.9668, -22.2458, 2.904),
                    256: (-33.0493, -22.1448, 2.8481),
                    272: (-33.1094, -21.9859, 2.8763),
                    288: (-33.1195, -21.8326, 2.973),
                    304: (-33.075, -21.7463, 3.0846),
                    320: (-32.9963, -21.7616, 3.1494),
                }
                float3 xformOp:rotateXYZ = (-90, 329, 63)
                float3 xformOp:scale = (0.26, 0.26, 0.26)
                uniform token[] xformOpOrder = ["xformOp:translate", "xformOp:rotateXYZ", "xformOp:scale"]
            }
            def Xform "Plaque_16" (
                instanceable = true
                prepend apiSchemas = ["MaterialBindingAPI"]
                prepend references = @../assets/plaques.usdc@</root>
            )
            {
                rel material:binding = </World/Materials/Plaque> (bindMaterialAs = "strongerThanDescendants")
                double3 xformOp:translate = (-20, 9, 16)
                double3 xformOp:translate.timeSamples = {
                    0: (-19.877, 8.7305, 16.2038),
                    16: (-19.9675, 8.8309, 16.1444),
                    32: (-20.0864, 8.9982, 15.9679),
                    48: (-20.1298, 9.1662, 15.8174),
                    64: (-20.0598, 9.2684, 15.815),
                    80: (-19.9375, 9.2646, 15.9627),
                    96: (-19.8698, 9.1561, 16.1406),
                    112: (-19.9159, 8.9859, 16.2045),
                    128: (-20.0355, 8.8213, 16.1026),
                    144: (-20.124, 8.7273, 15.9175),
                    160: (-20.1042, 8.7412, 15.7993),
                    176: (-19.9933, 8.8574, 15.8439),
                    192: (-19.8882, 9.03, 16.0151),
                    208: (-19.8809, 9.1907, 16.1741),
                    224: (-19.9776, 9.2761, 16.1919),
                    240: (-20.0939, 9.2522, 16.0541),
                    256: (-20.1281, 9.1287, 15.8724),
                    272: (-20.0503, 8.9542, 15.7942),
                    288: (-19.9286, 8.7979, 15.8829),
                    304: (-19.8692, 8.7215, 16.0666),
                    320: (-19.9242, 8.7552, 16.1962),
                }
                float3 xformOp:rotateXYZ = (-90, 16, 92)
                float3 xformOp:scale = (0.31, 0.31, 0.31)
                uniform token[] xformOpOrder = ["xformOp:translate", "xformOp:rotateXYZ", "xformOp:scale"]
            }
            def Xform "Plaque_17" (
                instanceable = true
                prepend apiSchemas = ["MaterialBindingAPI"]
                prepend references = @../assets/plaques.usdc@</root>
            )
            {
                rel material:binding = </World/Materials/Plaque> (bindMaterialAs = "strongerThanDescendants")
                double3 xformOp:translate = (-2, -20, -9)
                double3 xformOp:translate.timeSamples = {
                    0: (-2.095, -19.8945, -9.0181),
                    16: (-2.1223, -19.9945, -8.8783),
                    32: (-2.0907, -20.0964, -8.8586),
                    48: (-2.0155, -20.1647, -8.9783),
                    64: (-1.9327, -20.1755, -9.1194),
                    80: (-1.8824, -20.1251, -9.1428),
                    96: (-1.8887, -20.0311, -9.0254),
                    112: (-1.9486, -19.9262, -8.883),
                    128: (-2.0332, -19.8471, -8.8559),
                    144: (-2.1019, -19.8213, -8.9709),
                    160: (-2.1215, -19.8578, -9.1146),
                    176: (-2.0826, -19.9439, -9.1453),
                    192: (-2.0039, -20.0496, -9.0327),
                    208: (-1.9234, -20.138, -8.8879),
                    224: (-1.8797, -20.1782, -8.8536),
                    240: (-1.894, -20.1563, -8.9637),
                    256: (-1.9593, -20.0799, -9.1096),
                    272: (-2.0442, -19.9756, -9.1474),
                    288: (-2.1078, -19.8798, -9.0399),
                    304: (-2.1195, -19.8259, -8.8931),
                    320: (-2.0737, -19.8328, -8.8517),
                }
                float3 xformOp:rotateXYZ = (-90, 63, 121)
                float3 xformOp:scale = (0.37, 0.37, 0.37)
                uniform token[] xformOpOrder = ["xformOp:translate", "xformOp:rotateXYZ", "xformOp:scale"]
            }
            def Xform "Plaque_18" (
                instanceable = true
                prepend apiSchemas = ["MaterialBindingAPI"]
                prepend references = @../assets/plaques.usdc@</root>
            )
            {
                rel material:binding = </World/Materials/Plaque> (bindMaterialAs = "strongerThanDescendants")
                double3 xformOp:translate = (6, 18, -18)
                double3 xformOp:translate.timeSamples = {
                    0: (6.1728, 18.1832, -17.9474),
                    16: (6.124, 18.2909, -18.0412),
                    32: (6.0203, 18.1814, -18.114),
                    48: (5.9076, 17.9364, -18.1287),
                    64: (5.8358, 17.7389, -18.0779),
                    80: (5.8367, 17.7364, -17.9874),
                    96: (5.9099, 17.9307, -17.9033),
                    112: (6.0229, 18.1768, -17.8685),
                    128: (6.1258, 18.2908, -17.9007),
                    144: (6.173, 18.1877, -17.9834),
                    160: (6.1437, 17.9444, -18.0747),
                    176: (6.0507, 17.7426, -18.1278),
                    192: (5.9353, 17.7331, -18.1159),
                    208: (5.8485, 17.9229, -18.0449),
                    224: (5.8288, 18.1703, -17.9511),
                    240: (5.8849, 18.2905, -17.8821),
                    256: (5.9919, 18.1938, -17.8732),
                    272: (6.1025, 17.9524, -17.9289),
                    288: (6.1677, 17.7465, -18.0208),
                    304: (6.1587, 17.73, -18.1021),
                    320: (6.0794, 17.9151, -18.1314),
                }
                float3 xformOp:rotateXYZ = (-90, 110, 150)
                float3 xformOp:scale = (0.24, 0.24, 0.24)
                uniform token[] xformOpOrder = ["xformOp:translate", "xformOp:rotateXYZ", "xformOp:scale"]
            }
            def Xform "Plaque_19" (
                instanceable = true
                prepend apiSchemas = ["MaterialBindingAPI"]
                prepend references = @../assets/plaques.usdc@</root>
            )
            {
                rel material:binding = </World/Materials/Plaque> (bindMaterialAs = "strongerThanDescendants")
                double3 xformOp:translate = (15, -6, 10)
                double3 xformOp:translate.timeSamples = {
                    0: (15.1928, -6.1905, 10.0019),
                    16: (15.1254, -6.1697, 10.1401),
                    32: (14.976, -6.048, 10.1772),
                    48: (14.8423, -5.8977, 10.0865),
                    64: (14.8118, -5.8083, 9.9333),
                    80: (14.9046, -5.8329, 9.8283),
                    96: (15.0598, -5.9569, 9.8471),
                    112: (15.1759, -6.1066, 9.9763),
                    128: (15.1768, -6.1928, 10.1225),
                    144: (15.062, -6.1644, 10.1804),
                    160: (14.9066, -6.0382, 10.1081),
                    176: (14.8123, -5.8892, 9.9578),
                    192: (14.8409, -5.8062, 9.838),
                    208: (14.9737, -5.8385, 9.835),
                    224: (15.1237, -5.9668, 9.9511),
                    240: (15.1927, -6.1149, 10.1025),
                    256: (15.1356, -6.1946, 10.1799),
                    272: (14.9897, -6.1586, 10.1275),
                    288: (14.8506, -6.0282, 9.9831),
                    304: (14.8093, -5.881, 9.8509),
                    320: (14.8929, -5.8046, 9.8263),
                }
                float3 xformOp:rotateXYZ = (-90, 157, 179)
                float3 xformOp:scale = (0.33, 0.33, 0.33)
                uniform token[] xformOpOrder = ["xformOp:translate", "xformOp:rotateXYZ", "xformOp:scale"]
            }
            def Xform "Plaque_20" (
                instanceable = true
                prepend apiSchemas = ["MaterialBindingAPI"]
                prepend references = @../assets/plaques.usdc@</root>
            )
            {
                rel material:binding = </World/Materials/Plaque> (bindMaterialAs = "strongerThanDescendants")
                double3 xformOp:translate = (28, 22, -3)
                double3 xformOp:translate.timeSamples = {
                    0: (28.0905, 21.8019, -2.8319),
                    16: (28.1971, 21.7717, -2.9847),
                    32: (28.1987, 21.8442, -3.1512),
                    48: (28.0943, 21.9868, -3.182),
                    64: (27.9397, 22.1354, -3.0494),
                    80: (27.8173, 22.223, -2.8725),
                    96: (27.7922, 22.2103, -2.81),
                    112: (27.8779, 22.1029, -2.9181),
                    128: (28.0287, 21.9492, -3.0997),
                    144: (28.1642, 21.8184, -3.1918),
                    160: (28.2122, 21.7693, -3.1118),
                    176: (28.1471, 21.824, -2.9314),
                    192: (28.0036, 21.958, -2.8126),
                    208: (27.8582, 22.1108, -2.862),
                    224: (27.7884, 22.2138, -3.0353),
                    240: (27.8313, 22.2206, -3.1769),
                    256: (27.9642, 22.128, -3.1597),
                    272: (28.1162, 21.9779, -2.9991),
                    288: (28.2062, 21.8377, -2.8394),
                    304: (28.1863, 21.7705, -2.8238),
                    320: (28.0671, 21.8067, -2.9664),
                }
                float3 xformOp:rotateXYZ = (-90, 204, 208)
                float3 xformOp:scale = (0.27, 0.27, 0.27)
                uniform token[] xformOpOrder = ["xformOp:translate", "xformOp:rotateXYZ", "xformOp:scale"]
            }
            def Xform "Plaque_21" (
                instanceable = true
                prepend apiSchemas = ["MaterialBindingAPI"]
                prepend references = @../assets/plaques.usdc@</root>
            )
            {
                rel material:binding = </World/Materials/Plaque> (bindMaterialAs = "strongerThanDescendants")
                double3 xformOp:translate = (37, -15, -16)
                double3 xformOp:translate.timeSamples = {
                    0: (37.0871, -14.7341, -15.8623),
                    16: (36.9527, -14.8775, -15.8115),
                    32: (36.8564, -15.0999, -15.9221),
                    48: (36.8757, -15.2579, -16.0994),
                    64: (36.9951, -15.2495, -16.1916),
                    80: (37.1185, -15.0802, -16.1197),
                    96: (37.1464, -14.8592, -15.9454),
                    112: (37.0564, -14.729, -15.8178),
                    128: (36.921, -14.7736, -15.8462),
                    144: (36.8492, -14.9642, -16.0063),
                    160: (36.8989, -15.1779, -16.161),
                    176: (37.03, -15.2769, -16.1778),
                    192: (37.1369, -15.1973, -16.0424),
                    208: (37.1336, -14.9905, -15.8707),
                    224: (37.0226, -14.7898, -15.8097),
                    240: (36.8935, -14.7247, -15.9116),
                    256: (36.8501, -14.8371, -16.0893),
                    272: (36.9275, -15.0546, -16.1905),
                    288: (37.0632, -15.2369, -16.1286),
                    304: (37.1481, -15.2664, -15.9566),
                    320: (37.1137, -15.1241, -15.8218),
                }
                float3 xformOp:rotateXYZ = (-90, 251, 237)
                float3 xformOp:scale = (0.36, 0.36, 0.36)
                uniform token[] xformOpOrder = ["xformOp:translate", "xformOp:rotateXYZ", "xformOp:scale"]
            }
            def Xform "Plaque_22" (
                instanceable = true
                prepend apiSchemas = ["MaterialBindingAPI"]
                prepend references = @../assets/plaques.usdc@</root>
            )
            {
                rel material:binding = </World/Materials/Plaque> (bindMaterialAs = "strongerThanDescendants")
                double3 xformOp:translate = (46, 3, 8)
                double3 xformOp:translate.timeSamples = {
                    0: (45.9519, 3.0007, 8.1827),
                    16: (45.8638, 3.1886, 8.0579),
                    32: (45.8392, 3.2872, 7.8774),
                    48: (45.8897, 3.2497, 7.8148),
                    64: (45.9917, 3.094, 7.9304),
                    80: (46.0976, 2.8937, 8.113),
                    96: (46.1579, 2.7438, 8.1868),
                    112: (46.1445, 2.7152, 8.0809),
                    128: (46.0636, 2.8216, 7.8972),
                    144: (45.9531, 3.0124, 7.8124),
                    160: (45.8644, 3.1974, 7.9081),
                    176: (45.8391, 3.2889, 8.0923),
                    192: (45.8889, 3.2435, 8.1876),
                    208: (45.9905, 3.0828, 8.1024),
                    224: (46.0966, 2.8829, 7.9187),
                    240: (46.1576, 2.7384, 7.8132),
                    256: (46.145, 2.7179, 7.8874),
                    272: (46.0647, 2.8309, 8.07),
                    288: (45.9542, 3.0241, 8.1852),
                    304: (45.8651, 3.2058, 8.1222),
                    320: (45.8389, 3.2901, 7.9416),
                }
                float3 xformOp:rotateXYZ = (-90, 298, 266)
                float3 xformOp:scale = (0.22, 0.22, 0.22)
                uniform token[] xformOpOrder = ["xformOp:translate", "xformOp:rotateXYZ", "xformOp:scale"]
            }
        }
    }
}
