#usda 1.0
(
    customLayerData = {
        dictionary MovieCaptureSettings = {
            double animation_fps = 24
            int bad_frame_size_threshold = 0
            int batch_count = 1
            string camera_name = "/World/BackgroundDecayField/Cameras/Camera_DecayField"
            bool capture_application = 0
            int capture_every_nth_frames = 20
            bool capture_every_nth_frames_checked = 0
            int capture_frame_end = 320
            int capture_frame_start = 0
            string capture_name = "decay"
            string capture_range = "Custom Range - Frames"
            double capture_time_end = 10
            double capture_time_start = 0
            int early_quit_time_limit = 0
            string exr_compression_method = "zips"
            double fps = 24
            bool generate_shader_cache = 0
            bool hdr_for_exr_checked = 1
            bool hdr_for_exr_visible = 0
            int iray_pathtrace_spp = 1
            int iray_subframes_per_frame = 32
            int max_bad_frame_threshold = 3
            string movie_type = "Sequence"
            int mp4_encoding_bitrate = 16777216
            int mp4_encoding_iframe_interval = 60
            string mp4_encoding_preset = "PRESET_P3"
            string mp4_encoding_profile = "H264_PROFILE_HIGH"
            string mp4_encoding_rc_mode = "RC_VBR"
            int mp4_encoding_rc_target_quality = 0
            string mp4_encoding_tuning_info = "TUNING_HIGH_QUALITY"
            bool mp4_encoding_video_full_range_flag = 0
            string output_format = ".png"
            string output_path = "/home/daniel/Documents/Alz_videos/Output"
            bool overwrite_existing_frame_checked = 0
            bool pathtrace_mb_checked = 1
            double pathtrace_mb_frame_shutter_close = 0.5
            double pathtrace_mb_frame_shutter_open = 0
            int pathtrace_mb_subframes = 64
            int pathtrace_spp_per_iteration_mgpu = 1
            int pathtrace_spp_per_subframe = 1
            string queue_instance = "localhost Queue"
            int realtime_settle_latency = 0
            int realtime_wait_for_render_resolve = 0
            string render_preset = "RealTimePathTracing"
            bool render_style = 1
            bool renumber_negtive_frames_checked = 0
            int resolution_aspect_ratio_selected = 0
            string resolution_aspect_ratios = '["16:9", "4:3"]'
            int resolution_height = 1080
            string resolution_type = "Custom"
            bool resolution_w_h_linked = 1
            int resolution_width = 1920
            int run_n_frames_before_start = 20
            bool run_n_frames_before_start_checked = 0
            bool save_alpha_checked = 0
            bool skip_upload_to_s3 = 0
            int start_delay_seconds = 10
            double sunstudy_end = 18
            int sunstudy_movie_minutes = 1
            int sunstudy_movie_seconds = 1
            double sunstudy_start = 6
            string task_comment = ""
            int task_priority = 65535
            string task_type = "create-render"
            double texture_streaming_memory_budget = 0.6000000238418579
            bool upload_to_s3 = 0
        }
        dictionary cameraSettings = {
            dictionary Front = {
                double3 position = (0, 0, 500)
                double radius = 5
            }
            dictionary Perspective = {
                double3 position = (-69.00020673766363, -10.819585957180536, 83.0096397372781)
                double3 target = (-22.24252179095228, -14.790264073586023, -20.674572173697115)
            }
            dictionary Right = {
                double3 position = (-500, 0, 0)
                double radius = 5
            }
            dictionary Top = {
                double3 position = (0, 500, 0)
                double radius = 5
            }
            string boundCamera = "/OmniverseKit_Persp"
        }
        dictionary metricsAssembler = {
            dictionary "/World/plaque_references" = {
            }
            dictionary "/World/plaques" = {
            }
            int version = 1
        }
        dictionary omni_layer = {
            string authoring_layer = "./dementia_environment.usda"
        }
        dictionary renderSettings = {
            double "rtx:directLighting:sampledLighting:maxRayUnexposedIntensity" = 6399.9990234375
            int "rtx:externalFrameCounter" = 320
            double "rtx:indirectDiffuse:maxRayUnexposedIntensity" = 6399.9990234375
            double "rtx:pathtracing:fireflyFilter:maxPerEmissiveUnexposedIntensity" = 3199.99951171875
            double "rtx:pathtracing:fireflyFilter:maxUnexposedIntensityPerSample" = 3199.99951171875
            double "rtx:pathtracing:fireflyFilter:maxUnexposedIntensityPerSampleDiffuse" = 3199.99951171875
            double "rtx:raytracing:inscattering:maxRTSampleUnexposedIntensity" = 204799.96875
            double "rtx:translucency:maxRayUnexposedIntensity" = 19199.998046875
        }
    }
    defaultPrim = "World"
    endTimeCode = 320
    metersPerUnit = 0.01
    startTimeCode = 0
    subLayers = [
        @dementia_animation.usda@,
        @dementia_cameras.usda@,
        @dementia_pathology.usda@,
        @dementia_plaques.usda@,
        @dementia_neurons.usda@,
        @dementia_materials.usda@,
        @dementia_lighting.usda@
    ]
    timeCodesPerSecond = 24
    upAxis = "Y"
)

def Xform "World"
{
    over "Cameras"
    {
        over "Camera_DeadNeuron"
        {
            float exposure:fStop = 5
            float exposure:responsivity = 1.1026709
            float exposure:time = 0.02
            custom uniform vector3d omni:kit:centerOfInterest = (0, 0, -412.2905252080428)
            float3 xformOp:rotateXYZ = (-2, -2.5, -2.2571118e-15)
            float3 xformOp:rotateXYZ.timeSamples = {
                0: (-2, -2.5, 0),
                50: (-4.37282, -4.6302595, 0),
                110: (-6.5, -7.5, 0),
            }
            float3 xformOp:scale = (1.1, 1, 1)
            double3 xformOp:translate = (-26.51740281532538, 12.227399566254082, 331.76712569753835)
            double3 xformOp:translate.timeSamples = {
                0: (-27.42, 12.95, 352.44),
                50: (-23.800000354647636, 9.520806669068556, 307.7222483975707),
                110: (-23.98, 2.85, 272.94),
            }
            uniform token[] xformOpOrder = ["xformOp:translate", "xformOp:rotateXYZ", "xformOp:scale"]
        }

        over "Camera_Main"
        {
            float exposure:fStop = 5
            float exposure:responsivity = 1.1026709
            float exposure:time = 0.02
            custom uniform vector3d omni:kit:centerOfInterest = (0, 0, -246.26727365383994)
            float3 xformOp:rotateXYZ = (4.7588596, -21.27008, 0)
            float3 xformOp:rotateXYZ.timeSamples = {
                0: (4.7589, -21.2701, 0),
                5: (4.8364, -20.8942, -0),
                10: (4.8918, -19.6962, 0),
                15: (4.9248, -17.7138, -0),
                20: (4.9347, -14.985, 0),
                25: (4.9213, -11.5478, 0),
                30: (4.884, -7.44, -0),
                35: (4.8227, -2.6987, 0),
                40: (4.7371, 2.6399, -0),
                45: (4.6271, 8.5418, -0),
                50: (4.4926, 14.9755, -0),
                55: (4.3336, 21.9128, -0),
                60: (4.1497, 29.3301, -0),
                65: (3.9406, 37.2088, -0),
                70: (3.7055, 45.5362, 0),
                75: (3.4432, 54.3061, 0),
                80: (3.1522, 63.5181, 0),
                85: (2.8303, 73.177, 0),
                90: (2.4753, 83.2907, 0),
                95: (2.0851, 93.8662, 0),
                100: (1.6586, 104.9041, 0),
                105: (1.1964, 116.3906, 0),
                110: (0.7021, 128.2886, 0),
                115: (0.1834, 140.5291, 0),
                120: (-0.3475, 153.0072, 0),
                125: (-0.8754, 165.5848, 0),
                130: (-1.3835, 178.1027, 0),
                135: (-1.8567, 190.3998, 0),
                140: (-2.2841, 202.3324, 0),
                145: (-2.6602, 213.7886, 0),
                150: (-2.9846, 224.6936, 0),
                155: (-3.2604, 235.007, 0),
                160: (-3.4932, 244.7152, 0),
                165: (-3.6892, 253.8224, 0),
                170: (-3.8545, 262.3423, 0),
                175: (-3.9942, 270.2924, 0),
                180: (-4.1127, 277.6892, -0),
                185: (-4.2131, 284.5459, 0),
                190: (-4.2979, 290.8707, 0),
                195: (-4.3685, 296.6667, -0),
                200: (-4.4256, 301.9311, -0),
                205: (-4.4695, 306.6556, 0),
                210: (-4.5, 310.827, -0),
                215: (-4.5167, 314.4272, 0),
                220: (-4.5191, 317.4338, -0),
                225: (-4.5063, 319.8208, -0),
                230: (-4.478, 321.5589, -0),
                235: (-4.4336, 322.6162, -0),
                240: (-4.373, 322.9582, 0),
            }
            float3 xformOp:scale = (1, 1, 1)
            double3 xformOp:translate = (-72.41288437212407, -37.500000558793545, 230.7809000900632)
            double3 xformOp:translate.timeSamples = {
                0: (-72.4128844, -37.5000006, 230.7809001),
                5: (-69.259282, -37.4450155, 227.016298),
                10: (-62.9431381, -37.2831582, 224.2645357),
                15: (-53.7355407, -37.0190752, 222.2335747),
                20: (-41.8778056, -36.6574131, 220.5376558),
                25: (-27.6061, -36.2028187, 218.7229548),
                30: (-11.176521, -35.6599383, 216.2915773),
                35: (7.1117387, -35.0334188, 212.7256223),
                40: (26.8971596, -34.3279068, 207.5124453),
                45: (47.7423379, -33.5480488, 200.1715499),
                50: (69.12755, -32.6984914, 190.2828067),
                55: (90.4525052, -31.7838814, 177.5150083),
                60: (111.0468611, -30.8088652, 161.6531893),
                65: (130.1894671, -29.7780896, 142.6227367),
                70: (147.135604, -28.6962012, 120.5081287),
                75: (161.1507671, -27.5678466, 95.5642148),
                80: (171.5488639, -26.3976723, 68.2182803),
                85: (177.7321471, -25.1903251, 39.0617128),
                90: (179.2298511, -23.9504515, 8.8308444),
                95: (175.7324, -22.6826982, -21.6225793),
                100: (167.1182312, -21.3917118, -51.3699586),
                105: (153.4707288, -20.0821389, -79.4512519),
                110: (135.0834521, -18.7586262, -104.9243907),
                115: (112.4527175, -17.4258202, -126.9153988),
                120: (86.2575686, -16.0883675, -144.665739),
                125: (57.3281685, -14.7509149, -157.573525),
                130: (26.6045708, -13.4181089, -165.2256414),
                135: (-4.9113928, -12.0945961, -167.4184729),
                140: (-36.2078242, -10.7850232, -164.1658071),
                145: (-66.3145008, -9.4940368, -155.6934661),
                150: (-94.3511078, -8.2262835, -142.4212607),
                155: (-119.5687506, -6.98641, -124.9338432),
                160: (-141.3821449, -5.7790627, -103.9428806),
                165: (-159.3907123, -4.6088885, -80.2435904),
                170: (-173.3877804, -3.4805339, -54.6690198),
                175: (-183.3580911, -2.3986454, -28.0454804),
                180: (-189.464769, -1.3678698, -1.1522747),
                185: (-192.0276839, -0.3928537, 25.3116806),
                190: (-191.4956854, 0.5217563, 50.7524566),
                195: (-188.4154513, 1.3713137, 74.6958745),
                200: (-183.3996548, 2.1511717, 96.7921816),
                205: (-177.0968463, 2.8566838, 116.8111132),
                210: (-170.1649094, 3.4832033, 134.6283646),
                215: (-163.249247, 4.0260836, 150.2048554),
                220: (-156.9660616, 4.4806781, 163.5603065),
                225: (-151.8902552, 4.8423401, 174.7426273),
                230: (-148.5466567, 5.1064231, 183.7944734),
                235: (-147.402501, 5.2682805, 190.7181946),
                240: (-148.8583682, 5.3232655, 195.4403621),
            }
            uniform token[] xformOpOrder = ["xformOp:translate", "xformOp:rotateXYZ", "xformOp:scale"]
        }

        over "Camera_PathologyCloseup"
        {
            float exposure:fStop = 5
            float exposure:responsivity = 1.1026709
            float exposure:time = 0.02
            custom uniform vector3d omni:kit:centerOfInterest = (0, 0, -36.157448769399736)
            float3 xformOp:rotateXYZ = (0, -0, 0)
            float3 xformOp:scale = (1, 1, 1)
            double3 xformOp:translate = (18, -5, 30.81625467525515)
            uniform token[] xformOpOrder = ["xformOp:translate", "xformOp:rotateXYZ", "xformOp:scale"]
        }

        over "Camera_ResistingNeuron"
        {
            float exposure:fStop = 5
            float exposure:responsivity = 1.1026709
            float exposure:time = 0.02
            custom uniform vector3d omni:kit:centerOfInterest = (0, 0, -225.79947737275248)
            float3 xformOp:rotateXYZ = (-12.09019, -4.19621, -1.3503861e-14)
            float3 xformOp:rotateXYZ.timeSamples = {
                130: (-12.03, 3.21, 0),
                180: (-12.09019, -4.19621, 0),
                240: (-12.15, -7.4, 0),
            }
            float3 xformOp:scale = (1, 1, 1)
            double3 xformOp:translate = (1.8442277980304727, 51.29395853517243, 217.51532769324314)
            double3 xformOp:translate.timeSamples = {
                130: (33.16, 61.76, 268.84),
                180: (1.8442277980304727, 51.29395853517243, 217.51532769324314),
                240: (-5.27, 42.91, 177.78),
            }
            uniform token[] xformOpOrder = ["xformOp:translate", "xformOp:rotateXYZ", "xformOp:scale"]
        }
    }

    def DistantLight "DistantLight" (
        prepend apiSchemas = ["ShapingAPI"]
    )
    {
        float inputs:angle = 1
        float inputs:intensity = 3000
        float inputs:shaping:cone:angle = 180
        float inputs:shaping:cone:softness
        float inputs:shaping:focus
        color3f inputs:shaping:focusTint
        asset inputs:shaping:ies:file
        custom int omni:rtx:usdluxVersion = 2505
        quatd xformOp:orient = (0.9238795325112867, -0.3826834323650898, 0, 0)
        double3 xformOp:scale = (1, 1, 1)
        double3 xformOp:translate = (13.550005094905249, 32.62007366523871, 17.084218777347274)
        uniform token[] xformOpOrder = ["xformOp:translate", "xformOp:orient", "xformOp:scale"]
    }

    def DiskLight "DiskLight" (
        prepend apiSchemas = ["ShapingAPI"]
    )
    {
        float3[] extent = [(-50, -50, -0), (50, 50, 0)]
        float inputs:intensity = 2000
        float inputs:radius = 50
        float inputs:shaping:cone:angle = 180
        float inputs:shaping:cone:softness
        float inputs:shaping:focus
        color3f inputs:shaping:focusTint
        asset inputs:shaping:ies:file
        custom int omni:rtx:usdluxVersion = 2505
        quatd xformOp:orient = (1, 0, 0, 0)
        double3 xformOp:scale = (1, 1, 1)
        double3 xformOp:translate = (-7.871940193142135, 0, 40.39520349831548)
        uniform token[] xformOpOrder = ["xformOp:translate", "xformOp:orient", "xformOp:scale"]
    }

    over "Neurons"
    {
        over "Neuron_01_Dead"
        {
            float3 xformOp:rotateXYZ = (0, -18, 0)
            float3 xformOp:scale = (1, 1, 1)
            double3 xformOp:translate = (-10.030845958542555, 0, 12.056729662456245)
            double3 xformOp:translate.timeSamples = {
                0: (-10.030845958542555, 0, 12.056729662456245),
                10: (-10.030845958542555, 0.1339, 12.056729662456245),
                20: (-10.030845958542555, 0.2475, 12.056729662456245),
                30: (-10.030845958542555, 0.3234, 12.056729662456245),
                40: (-10.030845958542555, 0.35, 12.056729662456245),
                50: (-10.030845958542555, 0.3234, 12.056729662456245),
                60: (-10.030845958542555, 0.2475, 12.056729662456245),
                70: (-10.030845958542555, 0.1339, 12.056729662456245),
                80: (-10.030845958542555, 0, 12.056729662456245),
                90: (-10.030845958542555, -0.1339, 12.056729662456245),
                100: (-10.030845958542555, -0.2475, 12.056729662456245),
                110: (-10.030845958542555, -0.3234, 12.056729662456245),
                120: (-10.030845958542555, -0.35, 12.056729662456245),
                130: (-10.030845958542555, -0.3234, 12.056729662456245),
                140: (-10.030845958542555, -0.2475, 12.056729662456245),
                150: (-10.030845958542555, -0.1339, 12.056729662456245),
                160: (-10.030845958542555, 0, 12.056729662456245),
                170: (-10.030845958542555, 0.1339, 12.056729662456245),
                180: (-10.030845958542555, 0.2475, 12.056729662456245),
                190: (-10.030845958542555, 0.3234, 12.056729662456245),
                200: (-10.030845958542555, 0.35, 12.056729662456245),
                210: (-10.030845958542555, 0.3234, 12.056729662456245),
                220: (-10.030845958542555, 0.2475, 12.056729662456245),
                230: (-10.030845958542555, 0.1339, 12.056729662456245),
                240: (-10.030845958542555, 0, 12.056729662456245),
                250: (-10.030845958542555, -0.1339, 12.056729662456245),
                260: (-10.030845958542555, -0.2475, 12.056729662456245),
                270: (-10.030845958542555, -0.3234, 12.056729662456245),
                280: (-10.030845958542555, -0.35, 12.056729662456245),
                290: (-10.030845958542555, -0.3234, 12.056729662456245),
                300: (-10.030845958542555, -0.2475, 12.056729662456245),
                310: (-10.030845958542555, -0.1339, 12.056729662456245),
                320: (-10.030845958542555, 0, 12.056729662456245),
            }
            uniform token[] xformOpOrder = ["xformOp:translate", "xformOp:rotateXYZ", "xformOp:scale"]

            over "NeuronAsset"
            {
                float3 xformOp:rotateXYZ = (-72.8, 51.2, -6)

                over "Sphere_001"
                {
                    double3 xformOp:translate.timeSamples = {
                        0: (1.1064, 5.9147, -0.3227),
                        1: (1.1064, 5.9147, -0.3227),
                        10: (1.1337, 5.8972, -0.3091),
                        20: (1.0595, 5.9522, -0.3555),
                        30: (1.1352, 5.8955, -0.2748),
                        40: (1.0825, 5.9314, -0.3406),
                        50: (1.1064, 5.9147, -0.3227),
                        60: (1.1064, 5.9147, -0.3227),
                        70: (1.1064, 5.9147, -0.3227),
                        80: (1.1064, 5.9147, -0.3227),
                        90: (1.1097, 5.9321, -0.3236),
                        100: (1.119, 5.9823, -0.3264),
                        110: (1.134, 6.0623, -0.3308),
                        120: (1.154, 6.1692, -0.3366),
                        130: (1.1785, 6.2999, -0.3437),
                        140: (1.2068, 6.4515, -0.352),
                        150: (1.2385, 6.621, -0.3612),
                        160: (1.273, 6.8054, -0.3713),
                        170: (1.3097, 7.0017, -0.382),
                        180: (1.3481, 7.2069, -0.3932),
                        190: (1.3876, 7.4182, -0.4047),
                        200: (1.4277, 7.6324, -0.4164),
                        210: (1.4678, 7.8466, -0.4281),
                        220: (1.5073, 8.0578, -0.4396),
                        230: (1.5457, 8.2631, -0.4508),
                        240: (1.5824, 8.4594, -0.4615),
                        250: (1.6169, 8.6438, -0.4716),
                        260: (1.6486, 8.8133, -0.4808),
                        270: (1.677, 8.9649, -0.4891),
                        280: (1.7014, 9.0956, -0.4962),
                        290: (1.7214, 9.2025, -0.5021),
                        300: (1.7364, 9.2825, -0.5064),
                        310: (1.7458, 9.3327, -0.5092),
                        320: (1.749, 9.3501, -0.5101),
                    }
                }

                over "Sphere_002"
                {
                    float3 xformOp:rotateXYZ = (-2.4650867, -4.7989373, -12.006363)
                    float3 xformOp:scale = (0.58, 0.58, 0.58)
                    double3 xformOp:translate.timeSamples = {
                        0: (-0.21345440552048167, 0.1797772612819859, -1.1798454543997359),
                        1: (-0.21345440552048167, 0.1797772612819859, -1.1798454543997359),
                        10: (-0.2298, 0.1896, -1.188),
                        20: (-0.1937, 0.1516, -1.1573),
                        30: (-0.2307, 0.2028, -1.2086),
                        40: (-0.1955, 0.1708, -1.1691),
                        50: (-0.2135, 0.1798, -1.1798),
                        60: (-0.2135, 0.1798, -1.1798),
                        70: (-0.2135, 0.1798, -1.1798),
                        80: (-0.2135, 0.1798, -1.1798),
                        90: (-0.2154, 0.1814, -1.1907),
                        100: (-0.2211, 0.1862, -1.222),
                        110: (-0.2301, 0.1938, -1.2718),
                        120: (-0.2421, 0.2039, -1.3384),
                        130: (-0.2569, 0.2164, -1.4199),
                        140: (-0.274, 0.2307, -1.5144),
                        150: (-0.2931, 0.2468, -1.62),
                        160: (-0.3139, 0.2644, -1.7349),
                        170: (-0.336, 0.283, -1.8572),
                        180: (-0.3592, 0.3025, -1.9852),
                        190: (-0.383, 0.3225, -2.1168),
                        200: (-0.4071, 0.3429, -2.2503),
                        210: (-0.4313, 0.3632, -2.3838),
                        220: (-0.4551, 0.3833, -2.5154),
                        230: (-0.4782, 0.4028, -2.6434),
                        240: (-0.5004, 0.4214, -2.7657),
                        250: (-0.5212, 0.4389, -2.8806),
                        260: (-0.5403, 0.455, -2.9863),
                        270: (-0.5574, 0.4694, -3.0807),
                        280: (-0.5721, 0.4818, -3.1622),
                        290: (-0.5841, 0.492, -3.2288),
                        300: (-0.5932, 0.4996, -3.2786),
                        310: (-0.5988, 0.5043, -3.3099),
                        320: (-0.6008, 0.506, -3.3208),
                    }
                    uniform token[] xformOpOrder = ["xformOp:translate", "xformOp:rotateXYZ", "xformOp:scale"]
                }

                over "Sphere_003"
                {
                    float3 xformOp:rotateXYZ = (0, 3.4, 0)
                    float3 xformOp:scale = (0.608, 0.608, 0.608)
                    double3 xformOp:translate.timeSamples = {
                        0: (0.3788649451532784, -0.2050553614331836, -0.4581017198287396),
                        1: (0.3788649451532784, -0.2050553614331836, -0.4581017198287396),
                        10: (0.3903, -0.2214, -0.445),
                        20: (0.3507, -0.1882, -0.4722),
                        30: (0.3932, -0.2281, -0.4293),
                        40: (0.3645, -0.1871, -0.4707),
                        50: (0.3789, -0.2051, -0.4581),
                        60: (0.3789, -0.2051, -0.4581),
                        70: (0.3789, -0.2051, -0.4581),
                        80: (0.3789, -0.2051, -0.4581),
                        90: (0.3844, -0.208, -0.4647),
                        100: (0.4002, -0.2166, -0.4839),
                        110: (0.4255, -0.2303, -0.5144),
                        120: (0.4592, -0.2485, -0.5552),
                        130: (0.5005, -0.2709, -0.6051),
                        140: (0.5483, -0.2968, -0.663),
                        150: (0.6018, -0.3257, -0.7277),
                        160: (0.66, -0.3572, -0.7981),
                        170: (0.722, -0.3908, -0.873),
                        180: (0.7868, -0.4258, -0.9513),
                        190: (0.8535, -0.4619, -1.032),
                        200: (0.9211, -0.4985, -1.1137),
                        210: (0.9887, -0.5351, -1.1955),
                        220: (1.0554, -0.5712, -1.2761),
                        230: (1.1202, -0.6063, -1.3545),
                        240: (1.1822, -0.6398, -1.4294),
                        250: (1.2404, -0.6713, -1.4998),
                        260: (1.2939, -0.7003, -1.5645),
                        270: (1.3417, -0.7262, -1.6223),
                        280: (1.383, -0.7485, -1.6722),
                        290: (1.4167, -0.7668, -1.713),
                        300: (1.442, -0.7805, -1.7436),
                        310: (1.4578, -0.789, -1.7627),
                        320: (1.4633, -0.792, -1.7694),
                    }
                    uniform token[] xformOpOrder = ["xformOp:translate", "xformOp:rotateXYZ", "xformOp:scale"]
                }

                over "Sphere"
                {
                    float3 xformOp:rotateXYZ = (0.90000004, 21.7, -19.2)
                    float3 xformOp:scale = (1, 1, 1)
                    double3 xformOp:translate = (5.341981391344549, -2.999785377972697, 4.206198190557156)
                    uniform token[] xformOpOrder = ["xformOp:translate", "xformOp:rotateXYZ", "xformOp:scale"]
                }
            }
        }
    }

    over "Materials"
    {
        over "BlockedCargo"
        {
            over "Shader"
            {
                color3f inputs:diffuseColor = (0.66409266, 0.45914745, 0.32050803)
                color3f inputs:emissiveColor = (0.7181467, 0.6398347, 0.5656445)
                color3f inputs:specularColor = (0.45173746, 0.27781686, 0.11162624)
            }
        }
    }

    def "plaque_references" (
        prepend payload = @../assets/plaques.usdc@
    )
    {
        quatf xformOp:orient = (1, 0, 0, 0)
        double xformOp:rotateX:unitsResolve = -90
        float3 xformOp:scale = (1, 1, 1)
        double3 xformOp:scale:unitsResolve = (100, 100, 100)
        double3 xformOp:translate = (-10.419741041361268, -8.716080901424442, 9.967463810087711)
        uniform token[] xformOpOrder = ["xformOp:translate", "xformOp:orient", "xformOp:scale", "xformOp:rotateX:unitsResolve", "xformOp:scale:unitsResolve"]
    }

    def Scope "plaques"
    {
        def "Plaque_01" (
            prepend payload = @../assets/plaques.usdc@
        )
        {
            quatf xformOp:orient = (1, 0, 0, 0)
            double xformOp:rotateX:unitsResolve = -90
            float3 xformOp:scale = (1, 1, 1)
            double3 xformOp:scale:unitsResolve = (100, 100, 100)
            double3 xformOp:translate = (-10.419741041361268, -8.716080901424442, 9.967463810087711)
            double3 xformOp:translate.timeSamples = {
                30: (-10.4197, -8.7161, 9.9675),
                50: (-9.7624, -7.6521, 10.1072),
                85: (-8.6591, -5.8661, 10.3417),
                130: (-8.0722, -4.9161, 10.4665),
            }
            uniform token[] xformOpOrder = ["xformOp:translate", "xformOp:orient", "xformOp:scale", "xformOp:rotateX:unitsResolve", "xformOp:scale:unitsResolve"]
        }

        def "Plaque_02" (
            prepend payload = @../assets/plaques.usdc@
        )
        {
            quatf xformOp:orient = (1, 0, 0, 0)
            double xformOp:rotateX:unitsResolve = -90
            float3 xformOp:scale = (1, 1, 1)
            double3 xformOp:scale:unitsResolve = (100, 100, 100)
            double3 xformOp:translate = (-10.419741041361268, -8.716080901424442, 9.967463810087711)
            double3 xformOp:translate.timeSamples = {
                60: (-10.4197, -8.7161, 9.9675),
                80: (-10.044, -7.4281, 10.7187),
                115: (-9.4133, -5.2661, 11.9798),
                160: (-9.0778, -4.1161, 12.6506),
            }
            uniform token[] xformOpOrder = ["xformOp:translate", "xformOp:orient", "xformOp:scale", "xformOp:rotateX:unitsResolve", "xformOp:scale:unitsResolve"]
        }

        def "Plaque_03" (
            prepend payload = @../assets/plaques.usdc@
        )
        {
            quatf xformOp:orient = (1, 0, 0, 0)
            double xformOp:rotateX:unitsResolve = -90
            float3 xformOp:scale = (1, 1, 1)
            double3 xformOp:scale:unitsResolve = (100, 100, 100)
            double3 xformOp:translate = (-10.419741041361268, -8.716080901424442, 9.967463810087711)
            double3 xformOp:translate.timeSamples = {
                90: (-10.4197, -8.7161, 9.9675),
                110: (-10.6669, -7.5961, 10.501),
                145: (-11.0818, -5.7161, 11.3966),
                190: (-11.3025, -4.7161, 11.8729),
            }
            uniform token[] xformOpOrder = ["xformOp:translate", "xformOp:orient", "xformOp:scale", "xformOp:rotateX:unitsResolve", "xformOp:scale:unitsResolve"]
        }

        def "Plaque_04" (
            prepend payload = @../assets/plaques.usdc@
        )
        {
            quatf xformOp:orient = (1, 0, 0, 0)
            double xformOp:rotateX:unitsResolve = -90
            float3 xformOp:scale = (1, 1, 1)
            double3 xformOp:scale:unitsResolve = (100, 100, 100)
            double3 xformOp:translate = (-10.419741041361268, -8.716080901424442, 9.967463810087711)
            double3 xformOp:translate.timeSamples = {
                120: (-10.4197, -8.7161, 9.9675),
                140: (-11.1814, -7.2601, 10.1533),
                175: (-12.4599, -4.8161, 10.4653),
                220: (-13.1399, -3.5161, 10.6313),
            }
            uniform token[] xformOpOrder = ["xformOp:translate", "xformOp:orient", "xformOp:scale", "xformOp:rotateX:unitsResolve", "xformOp:scale:unitsResolve"]
        }

        def "Plaque_05" (
            prepend payload = @../assets/plaques.usdc@
        )
        {
            quatf xformOp:orient = (1, 0, 0, 0)
            double xformOp:rotateX:unitsResolve = -90
            float3 xformOp:scale = (1, 1, 1)
            double3 xformOp:scale:unitsResolve = (100, 100, 100)
            double3 xformOp:translate = (-10.419741041361268, -8.716080901424442, 9.967463810087711)
            double3 xformOp:translate.timeSamples = {
                150: (-10.4197, -8.7161, 9.9675),
                170: (-10.9735, -7.7081, 9.5393),
                205: (-11.903, -6.0161, 8.8205),
                250: (-12.3974, -5.1161, 8.4382),
            }
            uniform token[] xformOpOrder = ["xformOp:translate", "xformOp:orient", "xformOp:scale", "xformOp:rotateX:unitsResolve", "xformOp:scale:unitsResolve"]
        }

        def "Plaque_06" (
            prepend payload = @../assets/plaques.usdc@
        )
        {
            quatf xformOp:orient = (1, 0, 0, 0)
            double xformOp:rotateX:unitsResolve = -90
            float3 xformOp:scale = (1, 1, 1)
            double3 xformOp:scale:unitsResolve = (100, 100, 100)
            double3 xformOp:translate = (-10.419741041361268, -8.716080901424442, 9.967463810087711)
            double3 xformOp:translate.timeSamples = {
                180: (-10.4197, -8.7161, 9.9675),
                200: (-10.4331, -7.3441, 9.0716),
                235: (-10.4556, -5.0411, 7.5677),
                280: (-10.4676, -3.8161, 6.7678),
            }
            uniform token[] xformOpOrder = ["xformOp:translate", "xformOp:orient", "xformOp:scale", "xformOp:rotateX:unitsResolve", "xformOp:scale:unitsResolve"]
        }

        def "Plaque_07" (
            prepend payload = @../assets/plaques.usdc@
        )
        {
            quatf xformOp:orient = (1, 0, 0, 0)
            double xformOp:rotateX:unitsResolve = -90
            float3 xformOp:scale = (1, 1, 1)
            double3 xformOp:scale:unitsResolve = (100, 100, 100)
            double3 xformOp:translate = (-10.419741041361268, -8.716080901424442, 9.967463810087711)
            double3 xformOp:translate.timeSamples = {
                210: (-10.4197, -8.7161, 9.9675),
                230: (-9.9439, -7.5121, 9.5762),
                265: (-9.1453, -5.4911, 8.9195),
                310: (-8.7204, -4.4161, 8.5702),
            }
            uniform token[] xformOpOrder = ["xformOp:translate", "xformOp:orient", "xformOp:scale", "xformOp:rotateX:unitsResolve", "xformOp:scale:unitsResolve"]
        }
    }

    def "BackgroundDecayField" (
        prepend apiSchemas = ["MaterialBindingAPI"]
        prepend payload = @dementia_background_swarm.usda@
    )
    {
        rel material:binding = </World/Materials/DeadNeuron> (
            bindMaterialAs = "weakerThanDescendants"
        )
        quatf xformOp:orient = (1, 0, 0, 0)
        float3 xformOp:scale = (1, 1, 1)
        double3 xformOp:translate = (0, 0, 129.9733689428154)
        uniform token[] xformOpOrder = ["xformOp:translate", "xformOp:orient", "xformOp:scale"]

        over "Cameras"
        {
            over "Camera_DecayField" (
                prepend apiSchemas = ["OmniRtxCameraAutoExposureAPI_1", "OmniRtxCameraExposureAPI_1"]
            )
            {
                float exposure:fStop = 5
                float exposure:responsivity = 1.1026709
                float exposure:time = 0.02
                custom uniform vector3d omni:kit:centerOfInterest = (0, 0, -241.49281810584918)
                float3 xformOp:rotateXYZ = (5.4687, -6.80047, -7.2570005e-15)
                float3 xformOp:scale = (1, 1, 1)
                double3 xformOp:translate = (-35.60000053048134, -25.100000374019146, 18.200000271201134)
                double3 xformOp:translate.timeSamples = {
                    0: (-3.6, -25.6, -60),
                    320: (-35, -25.1, 18.2),
                }
                uniform token[] xformOpOrder = ["xformOp:translate", "xformOp:rotateXYZ", "xformOp:scale"]
            }
        }
    }
}

over "Render" (
    no_delete = true
)
{
    def "OmniverseKit"
    {
        def "HydraTextures" (
            hide_in_stage_window = true
            no_delete = true
        )
        {
            def RenderProduct "omni_kit_widget_viewport_ViewportTexture_0" (
                prepend apiSchemas = ["OmniRtxSettingsCommonAdvancedAPI_1", "OmniRtxSettingsRtAdvancedAPI_1", "OmniRtxSettingsPtAdvancedAPI_1", "OmniRtxPostColorGradingAPI_1", "OmniRtxPostChromaticAberrationAPI_1", "OmniRtxPostBloomPhysicalAPI_1", "OmniRtxPostMatteObjectAPI_1", "OmniRtxPostCompositingAPI_1", "OmniRtxPostDofAPI_1", "OmniRtxPostMotionBlurAPI_1", "OmniRtxPostTvNoiseAPI_1", "OmniRtxPostTonemapIrayReinhardAPI_1", "OmniRtxPostDebugSettingsAPI_1", "OmniRtxDebugSettingsAPI_1"]
                hide_in_stage_window = true
                no_delete = true
            )
            {
                rel camera = </OmniverseKit_Persp>
                token omni:rtx:ambientOcclusion:denoiserMode = "none"
                token omni:rtx:background:source:texture:textureMode = "repeatMirrored"
                token omni:rtx:background:source:type = "domeLight"
                bool omni:rtx:debug:view:pixelDebug:enableFixedTextPos = 1
                token omni:rtx:directLighting:sampledLighting:denoisingTechnique = "None"
                bool omni:rtx:dlss:frameGeneration = 1
                bool omni:rtx:indirectDiffuse:denoiser:enabled = 0
                bool omni:rtx:material:db:syncLoads
                bool omni:rtx:post:compositing:outputAlpha
                token omni:rtx:post:dlss:execMode = "performance"
                bool omni:rtx:post:registeredCompositing:invertColorCorrection = 1
                bool omni:rtx:post:registeredCompositing:invertToneMap = 1
                bool omni:rtx:pt:adaptiveSampling:filterError = 0
                uint omni:rtx:pt:adaptiveSampling:fixedSppIterations = 2
                float omni:rtx:pt:fireflyFilter:maxPerEmissiveUnexposedIntensity = 3199.9995
                float omni:rtx:pt:fireflyFilter:maxUnexposedIntensityPerSample = 3199.9995
                float omni:rtx:pt:fireflyFilter:maxUnexposedIntensityPerSampleDiffuse = 3199.9995
                uint omni:rtx:pt:maxSamplesPerLaunch = 2073600
                uint omni:rtx:pt:mgpu:maxPixelsPerRegionExponent = 12
                uint omni:rtx:pt:samplesPerPixel
                bool omni:rtx:reflections:denoiser:enabled = 0
                token omni:rtx:rendermode = "RealTimePathTracing"
                color3f omni:rtx:rt:ambientLight:color = (0.1, 0.1, 0.1)
                bool omni:rtx:rt:demoire = 0
                float omni:rtx:rt:directLighting:maxRayUnexposedIntensity = 6399.999
                bool omni:rtx:rt:ecoMode:enabled
                float omni:rtx:rt:indirectdiffuse:maxRayUnexposedIntensity = 6399.999
                float omni:rtx:rt:inscattering:maxRTSampleUnexposedIntensity = 204799.97
                bool omni:rtx:rt:lightcache:spatialCache:dontResolveConflicts = 1
                float omni:rtx:rt:refractions:maxRayUnexposedIntensity = 19199.998
                int omni:rtx:rt:sss:samples = 1
                uint omni:rtx:rtpt:maxVolumeBounces = 15
                float omni:rtx:rtpt:modulatingRoughnessThreshold = 0.08
                bool omni:rtx:scene:hydra:materialSyncLoads
                bool omni:rtx:scene:hydra:mdlMaterialWarmup = 1
                bool omni:rtx:scene:useViewLightingMode
                uint omni:rtx:viewTile:limit = 4294967295
                rel orderedVars = </Render/Vars/LdrColor>
                custom bool overrideClipRange = 0
                uniform int2 resolution = (949, 577)
            }
        }
    }

    def RenderSettings "OmniverseGlobalRenderSettings" (
        prepend apiSchemas = ["OmniRtxSettingsGlobalRtAdvancedAPI_1", "OmniRtxSettingsGlobalPtAdvancedAPI_1"]
        no_delete = true
    )
    {
        rel products = </Render/OmniverseKit/HydraTextures/omni_kit_widget_viewport_ViewportTexture_0>
    }

    def "Vars"
    {
        def RenderVar "LdrColor" (
            hide_in_stage_window = true
            no_delete = true
        )
        {
            uniform string sourceName = "LdrColor"
        }
    }
}

over "OmniverseKit_Persp" (
    prepend apiSchemas = ["OmniRtxCameraAutoExposureAPI_1", "OmniRtxCameraExposureAPI_1"]
    customData = {
        dictionary omni = {
            dictionary kit = {
                bool hide_in_stage_window = 1
                bool no_delete = 1
            }
        }
    }
    hide_in_stage_window = true
    kind = "component"
    no_delete = true
)
{
    float2 clippingRange = (0.01, 10000000)
    float exposure:fStop = 5
    float exposure:responsivity = 1.1026709
    float exposure:time = 0.02
    float focalLength = 18.147562
    float focusDistance = 400
    custom uniform vector3d omni:kit:centerOfInterest = (0, 0, -113.80888887024614)
    float3 xformOp:rotateXYZ = (-1.9993981, -24.273586, -1.1922593e-13)
    float3 xformOp:scale = (1, 1, 1)
    double3 xformOp:translate = (-69.00020673766363, -10.819585957180536, 83.0096397372781)
    uniform token[] xformOpOrder = ["xformOp:translate", "xformOp:rotateXYZ", "xformOp:scale"]
}

over "OmniverseKit_Front" (
    customData = {
        dictionary omni = {
            dictionary kit = {
                bool hide_in_stage_window = 1
                bool no_delete = 1
            }
        }
    }
    hide_in_stage_window = true
    kind = "component"
    no_delete = true
)
{
    float2 clippingRange = (1, 10000000)
    float horizontalAperture = 50
    custom uniform vector3d omni:kit:centerOfInterest = (0, 0, -500)
    token projection = "orthographic"
    float verticalAperture = 50
    float3 xformOp:rotateXYZ = (-0, 0, -0)
    float3 xformOp:scale = (1, 1, 1)
    double3 xformOp:translate = (0, 0, 500)
    uniform token[] xformOpOrder = ["xformOp:translate", "xformOp:rotateXYZ", "xformOp:scale"]
}

over "OmniverseKit_Right" (
    customData = {
        dictionary omni = {
            dictionary kit = {
                bool hide_in_stage_window = 1
                bool no_delete = 1
            }
        }
    }
    hide_in_stage_window = true
    kind = "component"
    no_delete = true
)
{
    float2 clippingRange = (1, 10000000)
    float horizontalAperture = 50
    custom uniform vector3d omni:kit:centerOfInterest = (0, 0, -500)
    token projection = "orthographic"
    float verticalAperture = 50
    float3 xformOp:rotateXYZ = (0, -90, -0)
    float3 xformOp:scale = (1, 1, 1)
    double3 xformOp:translate = (-500, 0, 0)
    uniform token[] xformOpOrder = ["xformOp:translate", "xformOp:rotateXYZ", "xformOp:scale"]
}

over "OmniverseKit_Top" (
    customData = {
        dictionary omni = {
            dictionary kit = {
                bool hide_in_stage_window = 1
                bool no_delete = 1
            }
        }
    }
    hide_in_stage_window = true
    kind = "component"
    no_delete = true
)
{
    float2 clippingRange = (1, 10000000)
    float horizontalAperture = 50
    custom uniform vector3d omni:kit:centerOfInterest = (0, 0, -500)
    token projection = "orthographic"
    float verticalAperture = 50
    float3 xformOp:rotateXYZ = (90, -4.961563e-15, 180)
    float3 xformOp:scale = (1, 1, 1)
    double3 xformOp:translate = (0, 500, 0)
    uniform token[] xformOpOrder = ["xformOp:translate", "xformOp:rotateXYZ", "xformOp:scale"]
}

def PhysicsScene "PhysicsScene" (
    prepend apiSchemas = ["PhysxSceneAPI", "NewtonSceneAPI"]
)
{
}

